<svg width="170" height="170" viewBox="0 0 170 170" fill="none" xmlns="http://www.w3.org/2000/svg">
<mask id="path-1-outside-1_2_3" maskUnits="userSpaceOnUse" x="0" y="0" width="170" height="170" fill="black">
<rect fill="white" width="170" height="170"/>
<path d="M160 85C160 126.421 126.421 160 85 160C43.5786 160 10 126.421 10 85C10 43.5786 43.5786 10 85 10C126.421 10 160 43.5786 160 85Z"/>
<path d="M71.296 59.35C69.676 59.17 68.704 58.324 68.704 56.65V52.366C68.704 50.476 69.676 49.522 71.584 49.522C73.492 49.522 74.428 50.44 74.428 52.276V56.992C74.428 57.748 74.788 58.126 75.49 58.126H78.082C76.75 57.55 76.102 56.326 76.102 54.472V54.004C76.102 51.124 77.506 49.702 80.26 49.702H84.256V51.448L78.298 54.778H80.026C82.708 54.778 84.184 55.84 84.184 57.676V59.35H82.618V58.054C82.618 56.506 81.628 55.876 80.152 55.876H77.542C77.74 56.794 78.712 57.532 80.476 58.126V59.35H75.4C73.708 59.35 72.88 58.54 72.88 56.956V52.258C72.88 51.34 72.448 50.89 71.584 50.89C70.72 50.89 70.27 51.358 70.27 52.312V56.578C70.27 57.478 70.72 57.982 71.62 58.126L71.296 59.35ZM77.542 53.95L82.528 50.836H80.17C78.496 50.836 77.542 51.898 77.542 53.374V53.95Z"/>
<path d="M89.1378 59.35C87.5178 59.17 86.5458 58.324 86.5458 56.65V52.366C86.5458 50.476 87.5178 49.522 89.4258 49.522C91.3338 49.522 92.2698 50.44 92.2698 52.276V56.992C92.2698 57.748 92.6298 58.126 93.3318 58.126H95.6898C96.3918 58.126 96.7518 57.748 96.7518 56.992V53.86C96.7518 51.88 95.8878 50.836 94.1958 50.728V49.522H98.7858C100.694 49.522 101.666 50.476 101.666 52.366V59.35H100.1V52.312C100.1 51.358 99.6678 50.89 98.7858 50.89H96.8238C97.8138 51.178 98.2998 52.078 98.2998 53.572V56.956C98.2998 58.54 97.4718 59.35 95.7798 59.35H93.2418C91.5498 59.35 90.7218 58.54 90.7218 56.956V52.258C90.7218 51.34 90.2898 50.89 89.4258 50.89C88.5618 50.89 88.1118 51.358 88.1118 52.312V56.578C88.1118 57.478 88.5618 57.982 89.4618 58.126L89.1378 59.35Z"/>
<path d="M49 94.9C49 92.249 51.149 90.1 53.8 90.1H116.2C118.851 90.1 121 92.249 121 94.9V110.5C121 113.151 118.851 115.3 116.2 115.3H53.8C51.149 115.3 49 113.151 49 110.5V94.9Z"/>
<path d="M32.6113 85.15C32.3672 85.15 32.2451 85.0157 32.2451 84.7472V75.0499C32.2451 74.7814 32.3672 74.6471 32.6113 74.6471H36.1489C37.5601 74.6471 38.5806 74.9107 39.2105 75.4381C39.8452 75.9654 40.1626 76.6612 40.1626 77.5255C40.1626 78.2872 39.9063 78.9269 39.3936 79.4444C38.8857 79.962 38.1606 80.2599 37.2183 80.338V80.3526C37.7163 80.7237 38.0459 81.0069 38.207 81.2022C38.3682 81.3927 38.5488 81.6515 38.749 81.9786L40.4043 84.6666C40.6045 84.9889 40.5605 85.15 40.2725 85.15H39.4375C39.208 85.15 39.0371 85.0548 38.9248 84.8644L37.4014 82.2496C37.1816 81.8736 36.8667 81.505 36.4565 81.1437C36.0464 80.7823 35.5361 80.6017 34.9258 80.6017H33.6514V84.7472C33.6514 85.0157 33.5293 85.15 33.2852 85.15H32.6113ZM33.6514 79.4005H35.7681C36.7202 79.4005 37.4526 79.276 37.9653 79.027C38.478 78.773 38.7344 78.2433 38.7344 77.4376C38.7344 76.8224 38.5 76.4049 38.0313 76.1852C37.5625 75.9605 36.9253 75.8482 36.1196 75.8482H33.6514V79.4005Z"/>
<path d="M41.9277 85.15C41.6738 85.15 41.6079 84.9889 41.73 84.6666L45.3774 75.0939C45.4897 74.796 45.6509 74.6471 45.8608 74.6471H46.8862C47.0962 74.6471 47.2573 74.796 47.3696 75.0939L51.0171 84.6666C51.1392 84.9889 51.0732 85.15 50.8193 85.15H50.0723C49.8135 85.15 49.6377 85.0304 49.5449 84.7911L48.6294 82.3668H44.1177L43.2021 84.7911C43.1094 85.0304 42.9336 85.15 42.6748 85.15H41.9277ZM44.5791 81.1656H48.168L47.0474 78.2359C46.9448 77.9625 46.8423 77.6598 46.7397 77.3277C46.6421 76.9957 46.5249 76.5245 46.3882 75.9142H46.3589C46.2222 76.5245 46.1025 76.9957 46 77.3277C45.9023 77.6598 45.8022 77.9625 45.6997 78.2359L44.5791 81.1656Z"/>
<path d="M52.7822 85.15C52.5381 85.15 52.416 85.0157 52.416 84.7472V75.0499C52.416 74.7814 52.5381 74.6471 52.7822 74.6471H55.4849C57.5552 74.6471 58.9932 75.1061 59.7988 76.024C60.6094 76.9371 61.0147 78.2237 61.0147 79.8839C61.0147 81.544 60.6094 82.838 59.7988 83.7657C58.9932 84.6886 57.5552 85.15 55.4849 85.15H52.7822ZM53.8223 83.9488H55.4189C57.0303 83.9488 58.1143 83.607 58.6709 82.9234C59.2324 82.2398 59.5132 81.2267 59.5132 79.8839C59.5132 78.5411 59.2324 77.5304 58.6709 76.8517C58.1143 76.173 57.0303 75.8336 55.4189 75.8336H53.8223V83.9488Z"/>
<path d="M63.2998 85.15C63.0557 85.15 62.9336 85.0157 62.9336 84.7472V75.0499C62.9336 74.7814 63.0557 74.6471 63.2998 74.6471H63.9736C64.2178 74.6471 64.3398 74.7814 64.3398 75.0499V84.7472C64.3398 85.0157 64.2178 85.15 63.9736 85.15H63.2998Z"/>
<path d="M66.2588 79.8985C66.2588 78.1896 66.6787 76.8517 67.5186 75.8849C68.3633 74.9132 69.5791 74.4273 71.166 74.4273C72.7529 74.4273 73.9663 74.9132 74.8062 75.8849C75.6509 76.8517 76.0732 78.1896 76.0732 79.8985C76.0732 81.6075 75.6509 82.9479 74.8062 83.9195C73.9663 84.8863 72.7529 85.3697 71.166 85.3697C69.5791 85.3697 68.3633 84.8863 67.5186 83.9195C66.6787 82.9479 66.2588 81.6075 66.2588 79.8985ZM67.7603 79.8985C67.7603 81.2657 68.041 82.3302 68.6025 83.0919C69.1641 83.8487 70.0186 84.2272 71.166 84.2272C72.3135 84.2272 73.168 83.8487 73.7295 83.0919C74.291 82.3302 74.5718 81.2657 74.5718 79.8985C74.5718 78.5314 74.291 77.4693 73.7295 76.7125C73.168 75.9508 72.3135 75.5699 71.166 75.5699C70.0186 75.5699 69.1641 75.9508 68.6025 76.7125C68.041 77.4693 67.7603 78.5314 67.7603 79.8985Z"/>
<path d="M82.3647 84.9376C82.1401 84.8155 82.0718 84.6568 82.1597 84.4615L82.4014 83.9415C82.5088 83.7071 82.687 83.673 82.936 83.839C83.3315 84.0978 83.7271 84.2272 84.1226 84.2272C84.5962 84.2272 84.9038 84.0685 85.0454 83.7511C85.187 83.4288 85.2578 82.9723 85.2578 82.3814V75.0499C85.2578 74.7814 85.3799 74.6471 85.624 74.6471H86.2979C86.542 74.6471 86.6641 74.7814 86.6641 75.0499V82.213C86.6641 83.1798 86.5127 83.9488 86.21 84.5201C85.9072 85.0865 85.1992 85.3697 84.0859 85.3697C83.4756 85.3697 82.9019 85.2257 82.3647 84.9376Z"/>
<path d="M88.4951 85.15C88.2412 85.15 88.1753 84.9889 88.2974 84.6666L91.9448 75.0939C92.0571 74.796 92.2183 74.6471 92.4282 74.6471H93.4536C93.6636 74.6471 93.8247 74.796 93.937 75.0939L97.5845 84.6666C97.7065 84.9889 97.6406 85.15 97.3867 85.15H96.6397C96.3809 85.15 96.2051 85.0304 96.1123 84.7911L95.1968 82.3668H90.6851L89.7695 84.7911C89.6768 85.0304 89.501 85.15 89.2422 85.15H88.4951ZM91.1465 81.1656H94.7354L93.6147 78.2359C93.5122 77.9625 93.4097 77.6598 93.3071 77.3277C93.2095 76.9957 93.0923 76.5245 92.9556 75.9142H92.9263C92.7896 76.5245 92.6699 76.9957 92.5674 77.3277C92.4697 77.6598 92.3696 77.9625 92.2671 78.2359L91.1465 81.1656Z"/>
<path d="M97.6064 75.0865C97.5283 74.7936 97.5918 74.6471 97.7969 74.6471H98.6904C98.8467 74.6471 98.9517 74.7594 99.0054 74.984L100.639 82.0226C100.707 82.3058 100.783 82.6134 100.866 82.9454C100.954 83.2774 101.029 83.5899 101.093 83.8829H101.129C101.178 83.5948 101.234 83.3092 101.298 83.026C101.366 82.7428 101.442 82.4107 101.525 82.0299L103.195 75.0426C103.258 74.7789 103.415 74.6471 103.664 74.6471H104.674C104.923 74.6471 105.08 74.7789 105.143 75.0426L106.813 82.0299C106.896 82.4107 106.969 82.7428 107.033 83.026C107.101 83.3092 107.16 83.5948 107.208 83.8829H107.245C107.309 83.5899 107.382 83.2774 107.465 82.9454C107.553 82.6134 107.631 82.3058 107.699 82.0226L109.333 74.984C109.386 74.7594 109.491 74.6471 109.647 74.6471H110.541C110.746 74.6471 110.81 74.7936 110.731 75.0865L108.212 84.586C108.114 84.962 107.934 85.15 107.67 85.15H106.754C106.51 85.15 106.337 84.9449 106.234 84.5348L104.469 77.5108C104.381 77.1544 104.318 76.8639 104.279 76.6393C104.24 76.4098 104.206 76.173 104.176 75.9288H104.162C104.132 76.173 104.098 76.4098 104.059 76.6393C104.02 76.8639 103.957 77.1544 103.869 77.5108L102.104 84.5348C102.001 84.9449 101.828 85.15 101.583 85.15H100.668C100.404 85.15 100.224 84.962 100.126 84.586L97.6064 75.0865Z"/>
<path d="M111.068 85.15C110.814 85.15 110.749 84.9889 110.871 84.6666L114.518 75.0939C114.63 74.796 114.792 74.6471 115.001 74.6471H116.027C116.237 74.6471 116.398 74.796 116.51 75.0939L120.158 84.6666C120.28 84.9889 120.214 85.15 119.96 85.15H119.213C118.954 85.15 118.778 85.0304 118.686 84.7911L117.77 82.3668H113.258L112.343 84.7911C112.25 85.0304 112.074 85.15 111.815 85.15H111.068ZM113.72 81.1656H117.309L116.188 78.2359C116.085 77.9625 115.983 77.6598 115.88 77.3277C115.783 76.9957 115.666 76.5245 115.529 75.9142H115.5C115.363 76.5245 115.243 76.9957 115.141 77.3277C115.043 77.6598 114.943 77.9625 114.84 78.2359L113.72 81.1656Z"/>
<path d="M126.024 85.15C125.771 85.15 125.705 84.9889 125.827 84.6666L129.474 75.0939C129.586 74.796 129.748 74.6471 129.958 74.6471H130.983C131.193 74.6471 131.354 74.796 131.466 75.0939L135.114 84.6666C135.236 84.9889 135.17 85.15 134.916 85.15H134.169C133.91 85.15 133.734 85.0304 133.642 84.7911L132.726 82.3668H128.214L127.299 84.7911C127.206 85.0304 127.03 85.15 126.771 85.15H126.024ZM128.676 81.1656H132.265L131.144 78.2359C131.042 77.9625 130.939 77.6598 130.836 77.3277C130.739 76.9957 130.622 76.5245 130.485 75.9142H130.456C130.319 76.5245 130.199 76.9957 130.097 77.3277C129.999 77.6598 129.899 77.9625 129.796 78.2359L128.676 81.1656Z"/>
<path d="M136.879 85.15C136.635 85.15 136.513 85.0157 136.513 84.7472V75.0499C136.513 74.7814 136.635 74.6471 136.879 74.6471H137.553C137.797 74.6471 137.919 74.7814 137.919 75.0499V84.7472C137.919 85.0157 137.797 85.15 137.553 85.15H136.879Z"/>
<path d="M52.8391 101.799C52.8391 100.432 53.175 99.3613 53.8469 98.5879C54.5227 97.8106 55.4953 97.4219 56.7648 97.4219C58.0344 97.4219 59.0051 97.8106 59.677 98.5879C60.3527 99.3613 60.6906 100.432 60.6906 101.799C60.6906 103.166 60.3527 104.238 59.677 105.016C59.0051 105.789 58.0344 106.176 56.7648 106.176C55.4953 106.176 54.5227 105.789 53.8469 105.016C53.175 104.238 52.8391 103.166 52.8391 101.799ZM54.0402 101.799C54.0402 102.893 54.2648 103.744 54.7141 104.354C55.1633 104.959 55.8469 105.262 56.7648 105.262C57.6828 105.262 58.3664 104.959 58.8156 104.354C59.2648 103.744 59.4895 102.893 59.4895 101.799C59.4895 100.705 59.2648 99.8555 58.8156 99.25C58.3664 98.6406 57.6828 98.3359 56.7648 98.3359C55.8469 98.3359 55.1633 98.6406 54.7141 99.25C54.2648 99.8555 54.0402 100.705 54.0402 101.799Z"/>
<path d="M62.5188 106C62.3234 106 62.2258 105.893 62.2258 105.678V97.9199C62.2258 97.7051 62.3234 97.5977 62.5188 97.5977H63.2688C63.5422 97.5977 63.7375 97.6953 63.8547 97.8906L67.5227 104.037H67.5461C67.5383 103.881 67.5344 103.725 67.5344 103.568V97.9199C67.5344 97.7051 67.632 97.5977 67.8273 97.5977H68.3664C68.5617 97.5977 68.6594 97.7051 68.6594 97.9199V105.678C68.6594 105.893 68.5617 106 68.3664 106H67.8508C67.5773 106 67.382 105.902 67.2648 105.707L63.3625 99.1856H63.3391C63.3469 99.3418 63.3508 99.4981 63.3508 99.6543V105.678C63.3508 105.893 63.2531 106 63.0578 106H62.5188Z"/>
<path d="M70.6281 105.367C70.4211 105.18 70.3664 105.016 70.4641 104.875L70.7688 104.436C70.8742 104.283 71.0441 104.295 71.2785 104.471C71.5871 104.701 71.9074 104.891 72.2395 105.039C72.5754 105.188 72.9816 105.262 73.4582 105.262C73.8098 105.262 74.1066 105.209 74.3488 105.104C74.591 104.998 74.7844 104.848 74.9289 104.652C75.0773 104.453 75.1516 104.213 75.1516 103.932C75.1516 103.729 75.1203 103.541 75.0578 103.369C74.9992 103.193 74.9035 103.047 74.7707 102.93C74.6379 102.813 74.4992 102.721 74.3547 102.654C74.1164 102.545 73.759 102.418 73.2824 102.273C72.8098 102.129 72.3957 101.973 72.0402 101.805C71.6887 101.637 71.4074 101.434 71.1965 101.195C70.9895 100.957 70.8508 100.713 70.7805 100.463C70.7141 100.209 70.6809 99.9199 70.6809 99.5957C70.6809 99.0996 70.8254 98.6719 71.1145 98.3125C71.4035 97.9531 71.757 97.7148 72.175 97.5977C72.5969 97.4805 73.0246 97.4219 73.4582 97.4219C73.9543 97.4219 74.3859 97.4863 74.7531 97.6152C75.1203 97.7441 75.4484 97.9121 75.7375 98.1191C75.9406 98.2637 75.9875 98.416 75.8781 98.5762L75.5793 99.0039C75.4895 99.1328 75.3137 99.1055 75.052 98.9219C74.8527 98.7813 74.6086 98.6504 74.3195 98.5293C74.0344 98.4043 73.7512 98.3418 73.4699 98.3418C73.1105 98.3418 72.8117 98.3848 72.5734 98.4707C72.3352 98.5527 72.1477 98.6934 72.0109 98.8926C71.8742 99.0918 71.8059 99.3223 71.8059 99.584C71.8059 99.7481 71.8215 99.9004 71.8527 100.041C71.884 100.178 71.9641 100.318 72.093 100.463C72.2219 100.607 72.3781 100.719 72.5617 100.797C72.8078 100.902 73.1887 101.027 73.7043 101.172C74.2238 101.313 74.677 101.486 75.0637 101.693C75.423 101.885 75.6809 102.086 75.8371 102.297C75.9973 102.504 76.1203 102.73 76.2063 102.977C76.2961 103.219 76.341 103.492 76.341 103.797C76.341 104.352 76.1984 104.814 75.9133 105.186C75.6281 105.557 75.2902 105.814 74.8996 105.959C74.509 106.104 74.0188 106.176 73.4289 106.176C72.7219 106.176 72.1359 106.094 71.6711 105.93C71.2063 105.766 70.8586 105.578 70.6281 105.367Z"/>
<path d="M77.3605 98.6055C77.1457 98.6055 77.0383 98.5176 77.0383 98.3418V97.8613C77.0383 97.6856 77.1457 97.5977 77.3605 97.5977H83.5598C83.7746 97.5977 83.882 97.6856 83.882 97.8613V98.3418C83.882 98.5176 83.7746 98.6055 83.5598 98.6055H81.0227V105.678C81.0227 105.893 80.925 106 80.7297 106H80.1906C79.9953 106 79.8977 105.893 79.8977 105.678V98.6055H77.3605Z"/>
<path d="M85.382 106C85.1867 106 85.0891 105.893 85.0891 105.678V97.9199C85.0891 97.7051 85.1867 97.5977 85.382 97.5977H88.2121C89.341 97.5977 90.1574 97.8086 90.6613 98.2305C91.1691 98.6523 91.4231 99.209 91.4231 99.9004C91.4231 100.51 91.218 101.021 90.8078 101.436C90.4016 101.85 89.8215 102.088 89.0676 102.15V102.162C89.466 102.459 89.7297 102.686 89.8586 102.842C89.9875 102.994 90.132 103.201 90.2922 103.463L91.6164 105.613C91.7766 105.871 91.7414 106 91.5109 106H90.843C90.6594 106 90.5227 105.924 90.4328 105.771L89.2141 103.68C89.0383 103.379 88.7863 103.084 88.4582 102.795C88.1301 102.506 87.7219 102.361 87.2336 102.361H86.2141V105.678C86.2141 105.893 86.1164 106 85.9211 106H85.382ZM86.2141 101.4H87.9074C88.6691 101.4 89.2551 101.301 89.6652 101.102C90.0754 100.898 90.2805 100.475 90.2805 99.8301C90.2805 99.3379 90.093 99.0039 89.718 98.8281C89.343 98.6484 88.8332 98.5586 88.1887 98.5586H86.2141V101.4Z"/>
<path d="M93.55 106C93.3547 106 93.257 105.893 93.257 105.678V97.9199C93.257 97.7051 93.3547 97.5977 93.55 97.5977H98.677C98.8918 97.5977 98.9992 97.6856 98.9992 97.8613V98.2949C98.9992 98.4707 98.8918 98.5586 98.677 98.5586H94.382V101.16H98.3254C98.5402 101.16 98.6477 101.248 98.6477 101.424V101.857C98.6477 102.033 98.5402 102.121 98.3254 102.121H94.382V105.039H98.8527C99.0676 105.039 99.175 105.127 99.175 105.303V105.736C99.175 105.912 99.0676 106 98.8527 106H93.55Z"/>
<path d="M100.277 106C100.073 106 100.021 105.871 100.118 105.613L103.036 97.9551C103.126 97.7168 103.255 97.5977 103.423 97.5977H104.243C104.411 97.5977 104.54 97.7168 104.63 97.9551L107.548 105.613C107.646 105.871 107.593 106 107.39 106H106.792C106.585 106 106.445 105.904 106.37 105.713L105.638 103.773H102.029L101.296 105.713C101.222 105.904 101.081 106 100.874 106H100.277ZM102.398 102.813H105.269L104.372 100.469C104.29 100.25 104.208 100.008 104.126 99.7422C104.048 99.4766 103.954 99.0996 103.845 98.6113H103.821C103.712 99.0996 103.616 99.4766 103.534 99.7422C103.456 100.008 103.376 100.25 103.294 100.469L102.398 102.813Z"/>
<path d="M108.96 106C108.765 106 108.667 105.893 108.667 105.678V97.9199C108.667 97.7051 108.765 97.5977 108.96 97.5977H110.208C110.357 97.5977 110.468 97.7148 110.542 97.9492L112.218 103.205C112.39 103.744 112.491 104.07 112.523 104.184C112.554 104.293 112.599 104.496 112.657 104.793H112.693C112.751 104.496 112.796 104.293 112.827 104.184C112.859 104.07 112.96 103.744 113.132 103.205L114.808 97.9492C114.882 97.7148 114.993 97.5977 115.142 97.5977H116.39C116.585 97.5977 116.683 97.7051 116.683 97.9199V105.678C116.683 105.893 116.585 106 116.39 106H115.851C115.655 106 115.558 105.893 115.558 105.678V99.5313C115.558 99.375 115.562 99.2188 115.57 99.0625H115.546L113.384 105.643C113.306 105.881 113.177 106 112.997 106H112.353C112.173 106 112.044 105.881 111.966 105.643L109.804 99.0625H109.78C109.788 99.2188 109.792 99.375 109.792 99.5313V105.678C109.792 105.893 109.695 106 109.499 106H108.96Z"/>
</mask>
<path d="M160 85C160 126.421 126.421 160 85 160C43.5786 160 10 126.421 10 85C10 43.5786 43.5786 10 85 10C126.421 10 160 43.5786 160 85Z" fill="#9CCE7D"/>
<path d="M71.296 59.35C69.676 59.17 68.704 58.324 68.704 56.65V52.366C68.704 50.476 69.676 49.522 71.584 49.522C73.492 49.522 74.428 50.44 74.428 52.276V56.992C74.428 57.748 74.788 58.126 75.49 58.126H78.082C76.75 57.55 76.102 56.326 76.102 54.472V54.004C76.102 51.124 77.506 49.702 80.26 49.702H84.256V51.448L78.298 54.778H80.026C82.708 54.778 84.184 55.84 84.184 57.676V59.35H82.618V58.054C82.618 56.506 81.628 55.876 80.152 55.876H77.542C77.74 56.794 78.712 57.532 80.476 58.126V59.35H75.4C73.708 59.35 72.88 58.54 72.88 56.956V52.258C72.88 51.34 72.448 50.89 71.584 50.89C70.72 50.89 70.27 51.358 70.27 52.312V56.578C70.27 57.478 70.72 57.982 71.62 58.126L71.296 59.35ZM77.542 53.95L82.528 50.836H80.17C78.496 50.836 77.542 51.898 77.542 53.374V53.95Z" fill="black"/>
<path d="M89.1378 59.35C87.5178 59.17 86.5458 58.324 86.5458 56.65V52.366C86.5458 50.476 87.5178 49.522 89.4258 49.522C91.3338 49.522 92.2698 50.44 92.2698 52.276V56.992C92.2698 57.748 92.6298 58.126 93.3318 58.126H95.6898C96.3918 58.126 96.7518 57.748 96.7518 56.992V53.86C96.7518 51.88 95.8878 50.836 94.1958 50.728V49.522H98.7858C100.694 49.522 101.666 50.476 101.666 52.366V59.35H100.1V52.312C100.1 51.358 99.6678 50.89 98.7858 50.89H96.8238C97.8138 51.178 98.2998 52.078 98.2998 53.572V56.956C98.2998 58.54 97.4718 59.35 95.7798 59.35H93.2418C91.5498 59.35 90.7218 58.54 90.7218 56.956V52.258C90.7218 51.34 90.2898 50.89 89.4258 50.89C88.5618 50.89 88.1118 51.358 88.1118 52.312V56.578C88.1118 57.478 88.5618 57.982 89.4618 58.126L89.1378 59.35Z" fill="black"/>
<path d="M49 94.9C49 92.249 51.149 90.1 53.8 90.1H116.2C118.851 90.1 121 92.249 121 94.9V110.5C121 113.151 118.851 115.3 116.2 115.3H53.8C51.149 115.3 49 113.151 49 110.5V94.9Z" fill="#E68A8A"/>
<path d="M32.6113 85.15C32.3672 85.15 32.2451 85.0157 32.2451 84.7472V75.0499C32.2451 74.7814 32.3672 74.6471 32.6113 74.6471H36.1489C37.5601 74.6471 38.5806 74.9107 39.2105 75.4381C39.8452 75.9654 40.1626 76.6612 40.1626 77.5255C40.1626 78.2872 39.9063 78.9269 39.3936 79.4444C38.8857 79.962 38.1606 80.2599 37.2183 80.338V80.3526C37.7163 80.7237 38.0459 81.0069 38.207 81.2022C38.3682 81.3927 38.5488 81.6515 38.749 81.9786L40.4043 84.6666C40.6045 84.9889 40.5605 85.15 40.2725 85.15H39.4375C39.208 85.15 39.0371 85.0548 38.9248 84.8644L37.4014 82.2496C37.1816 81.8736 36.8667 81.505 36.4565 81.1437C36.0464 80.7823 35.5361 80.6017 34.9258 80.6017H33.6514V84.7472C33.6514 85.0157 33.5293 85.15 33.2852 85.15H32.6113ZM33.6514 79.4005H35.7681C36.7202 79.4005 37.4526 79.276 37.9653 79.027C38.478 78.773 38.7344 78.2433 38.7344 77.4376C38.7344 76.8224 38.5 76.4049 38.0313 76.1852C37.5625 75.9605 36.9253 75.8482 36.1196 75.8482H33.6514V79.4005Z" fill="white"/>
<path d="M41.9277 85.15C41.6738 85.15 41.6079 84.9889 41.73 84.6666L45.3774 75.0939C45.4897 74.796 45.6509 74.6471 45.8608 74.6471H46.8862C47.0962 74.6471 47.2573 74.796 47.3696 75.0939L51.0171 84.6666C51.1392 84.9889 51.0732 85.15 50.8193 85.15H50.0723C49.8135 85.15 49.6377 85.0304 49.5449 84.7911L48.6294 82.3668H44.1177L43.2021 84.7911C43.1094 85.0304 42.9336 85.15 42.6748 85.15H41.9277ZM44.5791 81.1656H48.168L47.0474 78.2359C46.9448 77.9625 46.8423 77.6598 46.7397 77.3277C46.6421 76.9957 46.5249 76.5245 46.3882 75.9142H46.3589C46.2222 76.5245 46.1025 76.9957 46 77.3277C45.9023 77.6598 45.8022 77.9625 45.6997 78.2359L44.5791 81.1656Z" fill="white"/>
<path d="M52.7822 85.15C52.5381 85.15 52.416 85.0157 52.416 84.7472V75.0499C52.416 74.7814 52.5381 74.6471 52.7822 74.6471H55.4849C57.5552 74.6471 58.9932 75.1061 59.7988 76.024C60.6094 76.9371 61.0147 78.2237 61.0147 79.8839C61.0147 81.544 60.6094 82.838 59.7988 83.7657C58.9932 84.6886 57.5552 85.15 55.4849 85.15H52.7822ZM53.8223 83.9488H55.4189C57.0303 83.9488 58.1143 83.607 58.6709 82.9234C59.2324 82.2398 59.5132 81.2267 59.5132 79.8839C59.5132 78.5411 59.2324 77.5304 58.6709 76.8517C58.1143 76.173 57.0303 75.8336 55.4189 75.8336H53.8223V83.9488Z" fill="white"/>
<path d="M63.2998 85.15C63.0557 85.15 62.9336 85.0157 62.9336 84.7472V75.0499C62.9336 74.7814 63.0557 74.6471 63.2998 74.6471H63.9736C64.2178 74.6471 64.3398 74.7814 64.3398 75.0499V84.7472C64.3398 85.0157 64.2178 85.15 63.9736 85.15H63.2998Z" fill="white"/>
<path d="M66.2588 79.8985C66.2588 78.1896 66.6787 76.8517 67.5186 75.8849C68.3633 74.9132 69.5791 74.4273 71.166 74.4273C72.7529 74.4273 73.9663 74.9132 74.8062 75.8849C75.6509 76.8517 76.0732 78.1896 76.0732 79.8985C76.0732 81.6075 75.6509 82.9479 74.8062 83.9195C73.9663 84.8863 72.7529 85.3697 71.166 85.3697C69.5791 85.3697 68.3633 84.8863 67.5186 83.9195C66.6787 82.9479 66.2588 81.6075 66.2588 79.8985ZM67.7603 79.8985C67.7603 81.2657 68.041 82.3302 68.6025 83.0919C69.1641 83.8487 70.0186 84.2272 71.166 84.2272C72.3135 84.2272 73.168 83.8487 73.7295 83.0919C74.291 82.3302 74.5718 81.2657 74.5718 79.8985C74.5718 78.5314 74.291 77.4693 73.7295 76.7125C73.168 75.9508 72.3135 75.5699 71.166 75.5699C70.0186 75.5699 69.1641 75.9508 68.6025 76.7125C68.041 77.4693 67.7603 78.5314 67.7603 79.8985Z" fill="white"/>
<path d="M82.3647 84.9376C82.1401 84.8155 82.0718 84.6568 82.1597 84.4615L82.4014 83.9415C82.5088 83.7071 82.687 83.673 82.936 83.839C83.3315 84.0978 83.7271 84.2272 84.1226 84.2272C84.5962 84.2272 84.9038 84.0685 85.0454 83.7511C85.187 83.4288 85.2578 82.9723 85.2578 82.3814V75.0499C85.2578 74.7814 85.3799 74.6471 85.624 74.6471H86.2979C86.542 74.6471 86.6641 74.7814 86.6641 75.0499V82.213C86.6641 83.1798 86.5127 83.9488 86.21 84.5201C85.9072 85.0865 85.1992 85.3697 84.0859 85.3697C83.4756 85.3697 82.9019 85.2257 82.3647 84.9376Z" fill="white"/>
<path d="M88.4951 85.15C88.2412 85.15 88.1753 84.9889 88.2974 84.6666L91.9448 75.0939C92.0571 74.796 92.2183 74.6471 92.4282 74.6471H93.4536C93.6636 74.6471 93.8247 74.796 93.937 75.0939L97.5845 84.6666C97.7065 84.9889 97.6406 85.15 97.3867 85.15H96.6397C96.3809 85.15 96.2051 85.0304 96.1123 84.7911L95.1968 82.3668H90.6851L89.7695 84.7911C89.6768 85.0304 89.501 85.15 89.2422 85.15H88.4951ZM91.1465 81.1656H94.7354L93.6147 78.2359C93.5122 77.9625 93.4097 77.6598 93.3071 77.3277C93.2095 76.9957 93.0923 76.5245 92.9556 75.9142H92.9263C92.7896 76.5245 92.6699 76.9957 92.5674 77.3277C92.4697 77.6598 92.3696 77.9625 92.2671 78.2359L91.1465 81.1656Z" fill="white"/>
<path d="M97.6064 75.0865C97.5283 74.7936 97.5918 74.6471 97.7969 74.6471H98.6904C98.8467 74.6471 98.9517 74.7594 99.0054 74.984L100.639 82.0226C100.707 82.3058 100.783 82.6134 100.866 82.9454C100.954 83.2774 101.029 83.5899 101.093 83.8829H101.129C101.178 83.5948 101.234 83.3092 101.298 83.026C101.366 82.7428 101.442 82.4107 101.525 82.0299L103.195 75.0426C103.258 74.7789 103.415 74.6471 103.664 74.6471H104.674C104.923 74.6471 105.08 74.7789 105.143 75.0426L106.813 82.0299C106.896 82.4107 106.969 82.7428 107.033 83.026C107.101 83.3092 107.16 83.5948 107.208 83.8829H107.245C107.309 83.5899 107.382 83.2774 107.465 82.9454C107.553 82.6134 107.631 82.3058 107.699 82.0226L109.333 74.984C109.386 74.7594 109.491 74.6471 109.647 74.6471H110.541C110.746 74.6471 110.81 74.7936 110.731 75.0865L108.212 84.586C108.114 84.962 107.934 85.15 107.67 85.15H106.754C106.51 85.15 106.337 84.9449 106.234 84.5348L104.469 77.5108C104.381 77.1544 104.318 76.8639 104.279 76.6393C104.24 76.4098 104.206 76.173 104.176 75.9288H104.162C104.132 76.173 104.098 76.4098 104.059 76.6393C104.02 76.8639 103.957 77.1544 103.869 77.5108L102.104 84.5348C102.001 84.9449 101.828 85.15 101.583 85.15H100.668C100.404 85.15 100.224 84.962 100.126 84.586L97.6064 75.0865Z" fill="white"/>
<path d="M111.068 85.15C110.814 85.15 110.749 84.9889 110.871 84.6666L114.518 75.0939C114.63 74.796 114.792 74.6471 115.001 74.6471H116.027C116.237 74.6471 116.398 74.796 116.51 75.0939L120.158 84.6666C120.28 84.9889 120.214 85.15 119.96 85.15H119.213C118.954 85.15 118.778 85.0304 118.686 84.7911L117.77 82.3668H113.258L112.343 84.7911C112.25 85.0304 112.074 85.15 111.815 85.15H111.068ZM113.72 81.1656H117.309L116.188 78.2359C116.085 77.9625 115.983 77.6598 115.88 77.3277C115.783 76.9957 115.666 76.5245 115.529 75.9142H115.5C115.363 76.5245 115.243 76.9957 115.141 77.3277C115.043 77.6598 114.943 77.9625 114.84 78.2359L113.72 81.1656Z" fill="white"/>
<path d="M126.024 85.15C125.771 85.15 125.705 84.9889 125.827 84.6666L129.474 75.0939C129.586 74.796 129.748 74.6471 129.958 74.6471H130.983C131.193 74.6471 131.354 74.796 131.466 75.0939L135.114 84.6666C135.236 84.9889 135.17 85.15 134.916 85.15H134.169C133.91 85.15 133.734 85.0304 133.642 84.7911L132.726 82.3668H128.214L127.299 84.7911C127.206 85.0304 127.03 85.15 126.771 85.15H126.024ZM128.676 81.1656H132.265L131.144 78.2359C131.042 77.9625 130.939 77.6598 130.836 77.3277C130.739 76.9957 130.622 76.5245 130.485 75.9142H130.456C130.319 76.5245 130.199 76.9957 130.097 77.3277C129.999 77.6598 129.899 77.9625 129.796 78.2359L128.676 81.1656Z" fill="white"/>
<path d="M136.879 85.15C136.635 85.15 136.513 85.0157 136.513 84.7472V75.0499C136.513 74.7814 136.635 74.6471 136.879 74.6471H137.553C137.797 74.6471 137.919 74.7814 137.919 75.0499V84.7472C137.919 85.0157 137.797 85.15 137.553 85.15H136.879Z" fill="white"/>
<path d="M52.8391 101.799C52.8391 100.432 53.175 99.3613 53.8469 98.5879C54.5227 97.8106 55.4953 97.4219 56.7648 97.4219C58.0344 97.4219 59.0051 97.8106 59.677 98.5879C60.3527 99.3613 60.6906 100.432 60.6906 101.799C60.6906 103.166 60.3527 104.238 59.677 105.016C59.0051 105.789 58.0344 106.176 56.7648 106.176C55.4953 106.176 54.5227 105.789 53.8469 105.016C53.175 104.238 52.8391 103.166 52.8391 101.799ZM54.0402 101.799C54.0402 102.893 54.2648 103.744 54.7141 104.354C55.1633 104.959 55.8469 105.262 56.7648 105.262C57.6828 105.262 58.3664 104.959 58.8156 104.354C59.2648 103.744 59.4895 102.893 59.4895 101.799C59.4895 100.705 59.2648 99.8555 58.8156 99.25C58.3664 98.6406 57.6828 98.3359 56.7648 98.3359C55.8469 98.3359 55.1633 98.6406 54.7141 99.25C54.2648 99.8555 54.0402 100.705 54.0402 101.799Z" fill="black"/>
<path d="M62.5188 106C62.3234 106 62.2258 105.893 62.2258 105.678V97.9199C62.2258 97.7051 62.3234 97.5977 62.5188 97.5977H63.2688C63.5422 97.5977 63.7375 97.6953 63.8547 97.8906L67.5227 104.037H67.5461C67.5383 103.881 67.5344 103.725 67.5344 103.568V97.9199C67.5344 97.7051 67.632 97.5977 67.8273 97.5977H68.3664C68.5617 97.5977 68.6594 97.7051 68.6594 97.9199V105.678C68.6594 105.893 68.5617 106 68.3664 106H67.8508C67.5773 106 67.382 105.902 67.2648 105.707L63.3625 99.1856H63.3391C63.3469 99.3418 63.3508 99.4981 63.3508 99.6543V105.678C63.3508 105.893 63.2531 106 63.0578 106H62.5188Z" fill="black"/>
<path d="M70.6281 105.367C70.4211 105.18 70.3664 105.016 70.4641 104.875L70.7688 104.436C70.8742 104.283 71.0441 104.295 71.2785 104.471C71.5871 104.701 71.9074 104.891 72.2395 105.039C72.5754 105.188 72.9816 105.262 73.4582 105.262C73.8098 105.262 74.1066 105.209 74.3488 105.104C74.591 104.998 74.7844 104.848 74.9289 104.652C75.0773 104.453 75.1516 104.213 75.1516 103.932C75.1516 103.729 75.1203 103.541 75.0578 103.369C74.9992 103.193 74.9035 103.047 74.7707 102.93C74.6379 102.813 74.4992 102.721 74.3547 102.654C74.1164 102.545 73.759 102.418 73.2824 102.273C72.8098 102.129 72.3957 101.973 72.0402 101.805C71.6887 101.637 71.4074 101.434 71.1965 101.195C70.9895 100.957 70.8508 100.713 70.7805 100.463C70.7141 100.209 70.6809 99.9199 70.6809 99.5957C70.6809 99.0996 70.8254 98.6719 71.1145 98.3125C71.4035 97.9531 71.757 97.7148 72.175 97.5977C72.5969 97.4805 73.0246 97.4219 73.4582 97.4219C73.9543 97.4219 74.3859 97.4863 74.7531 97.6152C75.1203 97.7441 75.4484 97.9121 75.7375 98.1191C75.9406 98.2637 75.9875 98.416 75.8781 98.5762L75.5793 99.0039C75.4895 99.1328 75.3137 99.1055 75.052 98.9219C74.8527 98.7813 74.6086 98.6504 74.3195 98.5293C74.0344 98.4043 73.7512 98.3418 73.4699 98.3418C73.1105 98.3418 72.8117 98.3848 72.5734 98.4707C72.3352 98.5527 72.1477 98.6934 72.0109 98.8926C71.8742 99.0918 71.8059 99.3223 71.8059 99.584C71.8059 99.7481 71.8215 99.9004 71.8527 100.041C71.884 100.178 71.9641 100.318 72.093 100.463C72.2219 100.607 72.3781 100.719 72.5617 100.797C72.8078 100.902 73.1887 101.027 73.7043 101.172C74.2238 101.313 74.677 101.486 75.0637 101.693C75.423 101.885 75.6809 102.086 75.8371 102.297C75.9973 102.504 76.1203 102.73 76.2063 102.977C76.2961 103.219 76.341 103.492 76.341 103.797C76.341 104.352 76.1984 104.814 75.9133 105.186C75.6281 105.557 75.2902 105.814 74.8996 105.959C74.509 106.104 74.0188 106.176 73.4289 106.176C72.7219 106.176 72.1359 106.094 71.6711 105.93C71.2063 105.766 70.8586 105.578 70.6281 105.367Z" fill="black"/>
<path d="M77.3605 98.6055C77.1457 98.6055 77.0383 98.5176 77.0383 98.3418V97.8613C77.0383 97.6856 77.1457 97.5977 77.3605 97.5977H83.5598C83.7746 97.5977 83.882 97.6856 83.882 97.8613V98.3418C83.882 98.5176 83.7746 98.6055 83.5598 98.6055H81.0227V105.678C81.0227 105.893 80.925 106 80.7297 106H80.1906C79.9953 106 79.8977 105.893 79.8977 105.678V98.6055H77.3605Z" fill="black"/>
<path d="M85.382 106C85.1867 106 85.0891 105.893 85.0891 105.678V97.9199C85.0891 97.7051 85.1867 97.5977 85.382 97.5977H88.2121C89.341 97.5977 90.1574 97.8086 90.6613 98.2305C91.1691 98.6523 91.4231 99.209 91.4231 99.9004C91.4231 100.51 91.218 101.021 90.8078 101.436C90.4016 101.85 89.8215 102.088 89.0676 102.15V102.162C89.466 102.459 89.7297 102.686 89.8586 102.842C89.9875 102.994 90.132 103.201 90.2922 103.463L91.6164 105.613C91.7766 105.871 91.7414 106 91.5109 106H90.843C90.6594 106 90.5227 105.924 90.4328 105.771L89.2141 103.68C89.0383 103.379 88.7863 103.084 88.4582 102.795C88.1301 102.506 87.7219 102.361 87.2336 102.361H86.2141V105.678C86.2141 105.893 86.1164 106 85.9211 106H85.382ZM86.2141 101.4H87.9074C88.6691 101.4 89.2551 101.301 89.6652 101.102C90.0754 100.898 90.2805 100.475 90.2805 99.8301C90.2805 99.3379 90.093 99.0039 89.718 98.8281C89.343 98.6484 88.8332 98.5586 88.1887 98.5586H86.2141V101.4Z" fill="black"/>
<path d="M93.55 106C93.3547 106 93.257 105.893 93.257 105.678V97.9199C93.257 97.7051 93.3547 97.5977 93.55 97.5977H98.677C98.8918 97.5977 98.9992 97.6856 98.9992 97.8613V98.2949C98.9992 98.4707 98.8918 98.5586 98.677 98.5586H94.382V101.16H98.3254C98.5402 101.16 98.6477 101.248 98.6477 101.424V101.857C98.6477 102.033 98.5402 102.121 98.3254 102.121H94.382V105.039H98.8527C99.0676 105.039 99.175 105.127 99.175 105.303V105.736C99.175 105.912 99.0676 106 98.8527 106H93.55Z" fill="black"/>
<path d="M100.277 106C100.073 106 100.021 105.871 100.118 105.613L103.036 97.9551C103.126 97.7168 103.255 97.5977 103.423 97.5977H104.243C104.411 97.5977 104.54 97.7168 104.63 97.9551L107.548 105.613C107.646 105.871 107.593 106 107.39 106H106.792C106.585 106 106.445 105.904 106.37 105.713L105.638 103.773H102.029L101.296 105.713C101.222 105.904 101.081 106 100.874 106H100.277ZM102.398 102.813H105.269L104.372 100.469C104.29 100.25 104.208 100.008 104.126 99.7422C104.048 99.4766 103.954 99.0996 103.845 98.6113H103.821C103.712 99.0996 103.616 99.4766 103.534 99.7422C103.456 100.008 103.376 100.25 103.294 100.469L102.398 102.813Z" fill="black"/>
<path d="M108.96 106C108.765 106 108.667 105.893 108.667 105.678V97.9199C108.667 97.7051 108.765 97.5977 108.96 97.5977H110.208C110.357 97.5977 110.468 97.7148 110.542 97.9492L112.218 103.205C112.39 103.744 112.491 104.07 112.523 104.184C112.554 104.293 112.599 104.496 112.657 104.793H112.693C112.751 104.496 112.796 104.293 112.827 104.184C112.859 104.07 112.96 103.744 113.132 103.205L114.808 97.9492C114.882 97.7148 114.993 97.5977 115.142 97.5977H116.39C116.585 97.5977 116.683 97.7051 116.683 97.9199V105.678C116.683 105.893 116.585 106 116.39 106H115.851C115.655 106 115.558 105.893 115.558 105.678V99.5313C115.558 99.375 115.562 99.2188 115.57 99.0625H115.546L113.384 105.643C113.306 105.881 113.177 106 112.997 106H112.353C112.173 106 112.044 105.881 111.966 105.643L109.804 99.0625H109.78C109.788 99.2188 109.792 99.375 109.792 99.5313V105.678C109.792 105.893 109.695 106 109.499 106H108.96Z" fill="black"/>
<path d="M160 85C160 126.421 126.421 160 85 160C43.5786 160 10 126.421 10 85C10 43.5786 43.5786 10 85 10C126.421 10 160 43.5786 160 85Z" stroke="#E68A8A" stroke-width="20" mask="url(#path-1-outside-1_2_3)"/>
<path d="M71.296 59.35C69.676 59.17 68.704 58.324 68.704 56.65V52.366C68.704 50.476 69.676 49.522 71.584 49.522C73.492 49.522 74.428 50.44 74.428 52.276V56.992C74.428 57.748 74.788 58.126 75.49 58.126H78.082C76.75 57.55 76.102 56.326 76.102 54.472V54.004C76.102 51.124 77.506 49.702 80.26 49.702H84.256V51.448L78.298 54.778H80.026C82.708 54.778 84.184 55.84 84.184 57.676V59.35H82.618V58.054C82.618 56.506 81.628 55.876 80.152 55.876H77.542C77.74 56.794 78.712 57.532 80.476 58.126V59.35H75.4C73.708 59.35 72.88 58.54 72.88 56.956V52.258C72.88 51.34 72.448 50.89 71.584 50.89C70.72 50.89 70.27 51.358 70.27 52.312V56.578C70.27 57.478 70.72 57.982 71.62 58.126L71.296 59.35ZM77.542 53.95L82.528 50.836H80.17C78.496 50.836 77.542 51.898 77.542 53.374V53.95Z" stroke="#E68A8A" stroke-width="20" mask="url(#path-1-outside-1_2_3)"/>
<path d="M89.1378 59.35C87.5178 59.17 86.5458 58.324 86.5458 56.65V52.366C86.5458 50.476 87.5178 49.522 89.4258 49.522C91.3338 49.522 92.2698 50.44 92.2698 52.276V56.992C92.2698 57.748 92.6298 58.126 93.3318 58.126H95.6898C96.3918 58.126 96.7518 57.748 96.7518 56.992V53.86C96.7518 51.88 95.8878 50.836 94.1958 50.728V49.522H98.7858C100.694 49.522 101.666 50.476 101.666 52.366V59.35H100.1V52.312C100.1 51.358 99.6678 50.89 98.7858 50.89H96.8238C97.8138 51.178 98.2998 52.078 98.2998 53.572V56.956C98.2998 58.54 97.4718 59.35 95.7798 59.35H93.2418C91.5498 59.35 90.7218 58.54 90.7218 56.956V52.258C90.7218 51.34 90.2898 50.89 89.4258 50.89C88.5618 50.89 88.1118 51.358 88.1118 52.312V56.578C88.1118 57.478 88.5618 57.982 89.4618 58.126L89.1378 59.35Z" stroke="#E68A8A" stroke-width="20" mask="url(#path-1-outside-1_2_3)"/>
<path d="M49 94.9C49 92.249 51.149 90.1 53.8 90.1H116.2C118.851 90.1 121 92.249 121 94.9V110.5C121 113.151 118.851 115.3 116.2 115.3H53.8C51.149 115.3 49 113.151 49 110.5V94.9Z" stroke="#E68A8A" stroke-width="20" mask="url(#path-1-outside-1_2_3)"/>
<path d="M32.6113 85.15C32.3672 85.15 32.2451 85.0157 32.2451 84.7472V75.0499C32.2451 74.7814 32.3672 74.6471 32.6113 74.6471H36.1489C37.5601 74.6471 38.5806 74.9107 39.2105 75.4381C39.8452 75.9654 40.1626 76.6612 40.1626 77.5255C40.1626 78.2872 39.9063 78.9269 39.3936 79.4444C38.8857 79.962 38.1606 80.2599 37.2183 80.338V80.3526C37.7163 80.7237 38.0459 81.0069 38.207 81.2022C38.3682 81.3927 38.5488 81.6515 38.749 81.9786L40.4043 84.6666C40.6045 84.9889 40.5605 85.15 40.2725 85.15H39.4375C39.208 85.15 39.0371 85.0548 38.9248 84.8644L37.4014 82.2496C37.1816 81.8736 36.8667 81.505 36.4565 81.1437C36.0464 80.7823 35.5361 80.6017 34.9258 80.6017H33.6514V84.7472C33.6514 85.0157 33.5293 85.15 33.2852 85.15H32.6113ZM33.6514 79.4005H35.7681C36.7202 79.4005 37.4526 79.276 37.9653 79.027C38.478 78.773 38.7344 78.2433 38.7344 77.4376C38.7344 76.8224 38.5 76.4049 38.0313 76.1852C37.5625 75.9605 36.9253 75.8482 36.1196 75.8482H33.6514V79.4005Z" stroke="#E68A8A" stroke-width="20" mask="url(#path-1-outside-1_2_3)"/>
<path d="M41.9277 85.15C41.6738 85.15 41.6079 84.9889 41.73 84.6666L45.3774 75.0939C45.4897 74.796 45.6509 74.6471 45.8608 74.6471H46.8862C47.0962 74.6471 47.2573 74.796 47.3696 75.0939L51.0171 84.6666C51.1392 84.9889 51.0732 85.15 50.8193 85.15H50.0723C49.8135 85.15 49.6377 85.0304 49.5449 84.7911L48.6294 82.3668H44.1177L43.2021 84.7911C43.1094 85.0304 42.9336 85.15 42.6748 85.15H41.9277ZM44.5791 81.1656H48.168L47.0474 78.2359C46.9448 77.9625 46.8423 77.6598 46.7397 77.3277C46.6421 76.9957 46.5249 76.5245 46.3882 75.9142H46.3589C46.2222 76.5245 46.1025 76.9957 46 77.3277C45.9023 77.6598 45.8022 77.9625 45.6997 78.2359L44.5791 81.1656Z" stroke="#E68A8A" stroke-width="20" mask="url(#path-1-outside-1_2_3)"/>
<path d="M52.7822 85.15C52.5381 85.15 52.416 85.0157 52.416 84.7472V75.0499C52.416 74.7814 52.5381 74.6471 52.7822 74.6471H55.4849C57.5552 74.6471 58.9932 75.1061 59.7988 76.024C60.6094 76.9371 61.0147 78.2237 61.0147 79.8839C61.0147 81.544 60.6094 82.838 59.7988 83.7657C58.9932 84.6886 57.5552 85.15 55.4849 85.15H52.7822ZM53.8223 83.9488H55.4189C57.0303 83.9488 58.1143 83.607 58.6709 82.9234C59.2324 82.2398 59.5132 81.2267 59.5132 79.8839C59.5132 78.5411 59.2324 77.5304 58.6709 76.8517C58.1143 76.173 57.0303 75.8336 55.4189 75.8336H53.8223V83.9488Z" stroke="#E68A8A" stroke-width="20" mask="url(#path-1-outside-1_2_3)"/>
<path d="M63.2998 85.15C63.0557 85.15 62.9336 85.0157 62.9336 84.7472V75.0499C62.9336 74.7814 63.0557 74.6471 63.2998 74.6471H63.9736C64.2178 74.6471 64.3398 74.7814 64.3398 75.0499V84.7472C64.3398 85.0157 64.2178 85.15 63.9736 85.15H63.2998Z" stroke="#E68A8A" stroke-width="20" mask="url(#path-1-outside-1_2_3)"/>
<path d="M66.2588 79.8985C66.2588 78.1896 66.6787 76.8517 67.5186 75.8849C68.3633 74.9132 69.5791 74.4273 71.166 74.4273C72.7529 74.4273 73.9663 74.9132 74.8062 75.8849C75.6509 76.8517 76.0732 78.1896 76.0732 79.8985C76.0732 81.6075 75.6509 82.9479 74.8062 83.9195C73.9663 84.8863 72.7529 85.3697 71.166 85.3697C69.5791 85.3697 68.3633 84.8863 67.5186 83.9195C66.6787 82.9479 66.2588 81.6075 66.2588 79.8985ZM67.7603 79.8985C67.7603 81.2657 68.041 82.3302 68.6025 83.0919C69.1641 83.8487 70.0186 84.2272 71.166 84.2272C72.3135 84.2272 73.168 83.8487 73.7295 83.0919C74.291 82.3302 74.5718 81.2657 74.5718 79.8985C74.5718 78.5314 74.291 77.4693 73.7295 76.7125C73.168 75.9508 72.3135 75.5699 71.166 75.5699C70.0186 75.5699 69.1641 75.9508 68.6025 76.7125C68.041 77.4693 67.7603 78.5314 67.7603 79.8985Z" stroke="#E68A8A" stroke-width="20" mask="url(#path-1-outside-1_2_3)"/>
<path d="M82.3647 84.9376C82.1401 84.8155 82.0718 84.6568 82.1597 84.4615L82.4014 83.9415C82.5088 83.7071 82.687 83.673 82.936 83.839C83.3315 84.0978 83.7271 84.2272 84.1226 84.2272C84.5962 84.2272 84.9038 84.0685 85.0454 83.7511C85.187 83.4288 85.2578 82.9723 85.2578 82.3814V75.0499C85.2578 74.7814 85.3799 74.6471 85.624 74.6471H86.2979C86.542 74.6471 86.6641 74.7814 86.6641 75.0499V82.213C86.6641 83.1798 86.5127 83.9488 86.21 84.5201C85.9072 85.0865 85.1992 85.3697 84.0859 85.3697C83.4756 85.3697 82.9019 85.2257 82.3647 84.9376Z" stroke="#E68A8A" stroke-width="20" mask="url(#path-1-outside-1_2_3)"/>
<path d="M88.4951 85.15C88.2412 85.15 88.1753 84.9889 88.2974 84.6666L91.9448 75.0939C92.0571 74.796 92.2183 74.6471 92.4282 74.6471H93.4536C93.6636 74.6471 93.8247 74.796 93.937 75.0939L97.5845 84.6666C97.7065 84.9889 97.6406 85.15 97.3867 85.15H96.6397C96.3809 85.15 96.2051 85.0304 96.1123 84.7911L95.1968 82.3668H90.6851L89.7695 84.7911C89.6768 85.0304 89.501 85.15 89.2422 85.15H88.4951ZM91.1465 81.1656H94.7354L93.6147 78.2359C93.5122 77.9625 93.4097 77.6598 93.3071 77.3277C93.2095 76.9957 93.0923 76.5245 92.9556 75.9142H92.9263C92.7896 76.5245 92.6699 76.9957 92.5674 77.3277C92.4697 77.6598 92.3696 77.9625 92.2671 78.2359L91.1465 81.1656Z" stroke="#E68A8A" stroke-width="20" mask="url(#path-1-outside-1_2_3)"/>
<path d="M97.6064 75.0865C97.5283 74.7936 97.5918 74.6471 97.7969 74.6471H98.6904C98.8467 74.6471 98.9517 74.7594 99.0054 74.984L100.639 82.0226C100.707 82.3058 100.783 82.6134 100.866 82.9454C100.954 83.2774 101.029 83.5899 101.093 83.8829H101.129C101.178 83.5948 101.234 83.3092 101.298 83.026C101.366 82.7428 101.442 82.4107 101.525 82.0299L103.195 75.0426C103.258 74.7789 103.415 74.6471 103.664 74.6471H104.674C104.923 74.6471 105.08 74.7789 105.143 75.0426L106.813 82.0299C106.896 82.4107 106.969 82.7428 107.033 83.026C107.101 83.3092 107.16 83.5948 107.208 83.8829H107.245C107.309 83.5899 107.382 83.2774 107.465 82.9454C107.553 82.6134 107.631 82.3058 107.699 82.0226L109.333 74.984C109.386 74.7594 109.491 74.6471 109.647 74.6471H110.541C110.746 74.6471 110.81 74.7936 110.731 75.0865L108.212 84.586C108.114 84.962 107.934 85.15 107.67 85.15H106.754C106.51 85.15 106.337 84.9449 106.234 84.5348L104.469 77.5108C104.381 77.1544 104.318 76.8639 104.279 76.6393C104.24 76.4098 104.206 76.173 104.176 75.9288H104.162C104.132 76.173 104.098 76.4098 104.059 76.6393C104.02 76.8639 103.957 77.1544 103.869 77.5108L102.104 84.5348C102.001 84.9449 101.828 85.15 101.583 85.15H100.668C100.404 85.15 100.224 84.962 100.126 84.586L97.6064 75.0865Z" stroke="#E68A8A" stroke-width="20" mask="url(#path-1-outside-1_2_3)"/>
<path d="M111.068 85.15C110.814 85.15 110.749 84.9889 110.871 84.6666L114.518 75.0939C114.63 74.796 114.792 74.6471 115.001 74.6471H116.027C116.237 74.6471 116.398 74.796 116.51 75.0939L120.158 84.6666C120.28 84.9889 120.214 85.15 119.96 85.15H119.213C118.954 85.15 118.778 85.0304 118.686 84.7911L117.77 82.3668H113.258L112.343 84.7911C112.25 85.0304 112.074 85.15 111.815 85.15H111.068ZM113.72 81.1656H117.309L116.188 78.2359C116.085 77.9625 115.983 77.6598 115.88 77.3277C115.783 76.9957 115.666 76.5245 115.529 75.9142H115.5C115.363 76.5245 115.243 76.9957 115.141 77.3277C115.043 77.6598 114.943 77.9625 114.84 78.2359L113.72 81.1656Z" stroke="#E68A8A" stroke-width="20" mask="url(#path-1-outside-1_2_3)"/>
<path d="M126.024 85.15C125.771 85.15 125.705 84.9889 125.827 84.6666L129.474 75.0939C129.586 74.796 129.748 74.6471 129.958 74.6471H130.983C131.193 74.6471 131.354 74.796 131.466 75.0939L135.114 84.6666C135.236 84.9889 135.17 85.15 134.916 85.15H134.169C133.91 85.15 133.734 85.0304 133.642 84.7911L132.726 82.3668H128.214L127.299 84.7911C127.206 85.0304 127.03 85.15 126.771 85.15H126.024ZM128.676 81.1656H132.265L131.144 78.2359C131.042 77.9625 130.939 77.6598 130.836 77.3277C130.739 76.9957 130.622 76.5245 130.485 75.9142H130.456C130.319 76.5245 130.199 76.9957 130.097 77.3277C129.999 77.6598 129.899 77.9625 129.796 78.2359L128.676 81.1656Z" stroke="#E68A8A" stroke-width="20" mask="url(#path-1-outside-1_2_3)"/>
<path d="M136.879 85.15C136.635 85.15 136.513 85.0157 136.513 84.7472V75.0499C136.513 74.7814 136.635 74.6471 136.879 74.6471H137.553C137.797 74.6471 137.919 74.7814 137.919 75.0499V84.7472C137.919 85.0157 137.797 85.15 137.553 85.15H136.879Z" stroke="#E68A8A" stroke-width="20" mask="url(#path-1-outside-1_2_3)"/>
<path d="M52.8391 101.799C52.8391 100.432 53.175 99.3613 53.8469 98.5879C54.5227 97.8106 55.4953 97.4219 56.7648 97.4219C58.0344 97.4219 59.0051 97.8106 59.677 98.5879C60.3527 99.3613 60.6906 100.432 60.6906 101.799C60.6906 103.166 60.3527 104.238 59.677 105.016C59.0051 105.789 58.0344 106.176 56.7648 106.176C55.4953 106.176 54.5227 105.789 53.8469 105.016C53.175 104.238 52.8391 103.166 52.8391 101.799ZM54.0402 101.799C54.0402 102.893 54.2648 103.744 54.7141 104.354C55.1633 104.959 55.8469 105.262 56.7648 105.262C57.6828 105.262 58.3664 104.959 58.8156 104.354C59.2648 103.744 59.4895 102.893 59.4895 101.799C59.4895 100.705 59.2648 99.8555 58.8156 99.25C58.3664 98.6406 57.6828 98.3359 56.7648 98.3359C55.8469 98.3359 55.1633 98.6406 54.7141 99.25C54.2648 99.8555 54.0402 100.705 54.0402 101.799Z" stroke="#E68A8A" stroke-width="20" mask="url(#path-1-outside-1_2_3)"/>
<path d="M62.5188 106C62.3234 106 62.2258 105.893 62.2258 105.678V97.9199C62.2258 97.7051 62.3234 97.5977 62.5188 97.5977H63.2688C63.5422 97.5977 63.7375 97.6953 63.8547 97.8906L67.5227 104.037H67.5461C67.5383 103.881 67.5344 103.725 67.5344 103.568V97.9199C67.5344 97.7051 67.632 97.5977 67.8273 97.5977H68.3664C68.5617 97.5977 68.6594 97.7051 68.6594 97.9199V105.678C68.6594 105.893 68.5617 106 68.3664 106H67.8508C67.5773 106 67.382 105.902 67.2648 105.707L63.3625 99.1856H63.3391C63.3469 99.3418 63.3508 99.4981 63.3508 99.6543V105.678C63.3508 105.893 63.2531 106 63.0578 106H62.5188Z" stroke="#E68A8A" stroke-width="20" mask="url(#path-1-outside-1_2_3)"/>
<path d="M70.6281 105.367C70.4211 105.18 70.3664 105.016 70.4641 104.875L70.7688 104.436C70.8742 104.283 71.0441 104.295 71.2785 104.471C71.5871 104.701 71.9074 104.891 72.2395 105.039C72.5754 105.188 72.9816 105.262 73.4582 105.262C73.8098 105.262 74.1066 105.209 74.3488 105.104C74.591 104.998 74.7844 104.848 74.9289 104.652C75.0773 104.453 75.1516 104.213 75.1516 103.932C75.1516 103.729 75.1203 103.541 75.0578 103.369C74.9992 103.193 74.9035 103.047 74.7707 102.93C74.6379 102.813 74.4992 102.721 74.3547 102.654C74.1164 102.545 73.759 102.418 73.2824 102.273C72.8098 102.129 72.3957 101.973 72.0402 101.805C71.6887 101.637 71.4074 101.434 71.1965 101.195C70.9895 100.957 70.8508 100.713 70.7805 100.463C70.7141 100.209 70.6809 99.9199 70.6809 99.5957C70.6809 99.0996 70.8254 98.6719 71.1145 98.3125C71.4035 97.9531 71.757 97.7148 72.175 97.5977C72.5969 97.4805 73.0246 97.4219 73.4582 97.4219C73.9543 97.4219 74.3859 97.4863 74.7531 97.6152C75.1203 97.7441 75.4484 97.9121 75.7375 98.1191C75.9406 98.2637 75.9875 98.416 75.8781 98.5762L75.5793 99.0039C75.4895 99.1328 75.3137 99.1055 75.052 98.9219C74.8527 98.7813 74.6086 98.6504 74.3195 98.5293C74.0344 98.4043 73.7512 98.3418 73.4699 98.3418C73.1105 98.3418 72.8117 98.3848 72.5734 98.4707C72.3352 98.5527 72.1477 98.6934 72.0109 98.8926C71.8742 99.0918 71.8059 99.3223 71.8059 99.584C71.8059 99.7481 71.8215 99.9004 71.8527 100.041C71.884 100.178 71.9641 100.318 72.093 100.463C72.2219 100.607 72.3781 100.719 72.5617 100.797C72.8078 100.902 73.1887 101.027 73.7043 101.172C74.2238 101.313 74.677 101.486 75.0637 101.693C75.423 101.885 75.6809 102.086 75.8371 102.297C75.9973 102.504 76.1203 102.73 76.2063 102.977C76.2961 103.219 76.341 103.492 76.341 103.797C76.341 104.352 76.1984 104.814 75.9133 105.186C75.6281 105.557 75.2902 105.814 74.8996 105.959C74.509 106.104 74.0188 106.176 73.4289 106.176C72.7219 106.176 72.1359 106.094 71.6711 105.93C71.2063 105.766 70.8586 105.578 70.6281 105.367Z" stroke="#E68A8A" stroke-width="20" mask="url(#path-1-outside-1_2_3)"/>
<path d="M77.3605 98.6055C77.1457 98.6055 77.0383 98.5176 77.0383 98.3418V97.8613C77.0383 97.6856 77.1457 97.5977 77.3605 97.5977H83.5598C83.7746 97.5977 83.882 97.6856 83.882 97.8613V98.3418C83.882 98.5176 83.7746 98.6055 83.5598 98.6055H81.0227V105.678C81.0227 105.893 80.925 106 80.7297 106H80.1906C79.9953 106 79.8977 105.893 79.8977 105.678V98.6055H77.3605Z" stroke="#E68A8A" stroke-width="20" mask="url(#path-1-outside-1_2_3)"/>
<path d="M85.382 106C85.1867 106 85.0891 105.893 85.0891 105.678V97.9199C85.0891 97.7051 85.1867 97.5977 85.382 97.5977H88.2121C89.341 97.5977 90.1574 97.8086 90.6613 98.2305C91.1691 98.6523 91.4231 99.209 91.4231 99.9004C91.4231 100.51 91.218 101.021 90.8078 101.436C90.4016 101.85 89.8215 102.088 89.0676 102.15V102.162C89.466 102.459 89.7297 102.686 89.8586 102.842C89.9875 102.994 90.132 103.201 90.2922 103.463L91.6164 105.613C91.7766 105.871 91.7414 106 91.5109 106H90.843C90.6594 106 90.5227 105.924 90.4328 105.771L89.2141 103.68C89.0383 103.379 88.7863 103.084 88.4582 102.795C88.1301 102.506 87.7219 102.361 87.2336 102.361H86.2141V105.678C86.2141 105.893 86.1164 106 85.9211 106H85.382ZM86.2141 101.4H87.9074C88.6691 101.4 89.2551 101.301 89.6652 101.102C90.0754 100.898 90.2805 100.475 90.2805 99.8301C90.2805 99.3379 90.093 99.0039 89.718 98.8281C89.343 98.6484 88.8332 98.5586 88.1887 98.5586H86.2141V101.4Z" stroke="#E68A8A" stroke-width="20" mask="url(#path-1-outside-1_2_3)"/>
<path d="M93.55 106C93.3547 106 93.257 105.893 93.257 105.678V97.9199C93.257 97.7051 93.3547 97.5977 93.55 97.5977H98.677C98.8918 97.5977 98.9992 97.6856 98.9992 97.8613V98.2949C98.9992 98.4707 98.8918 98.5586 98.677 98.5586H94.382V101.16H98.3254C98.5402 101.16 98.6477 101.248 98.6477 101.424V101.857C98.6477 102.033 98.5402 102.121 98.3254 102.121H94.382V105.039H98.8527C99.0676 105.039 99.175 105.127 99.175 105.303V105.736C99.175 105.912 99.0676 106 98.8527 106H93.55Z" stroke="#E68A8A" stroke-width="20" mask="url(#path-1-outside-1_2_3)"/>
<path d="M100.277 106C100.073 106 100.021 105.871 100.118 105.613L103.036 97.9551C103.126 97.7168 103.255 97.5977 103.423 97.5977H104.243C104.411 97.5977 104.54 97.7168 104.63 97.9551L107.548 105.613C107.646 105.871 107.593 106 107.39 106H106.792C106.585 106 106.445 105.904 106.37 105.713L105.638 103.773H102.029L101.296 105.713C101.222 105.904 101.081 106 100.874 106H100.277ZM102.398 102.813H105.269L104.372 100.469C104.29 100.25 104.208 100.008 104.126 99.7422C104.048 99.4766 103.954 99.0996 103.845 98.6113H103.821C103.712 99.0996 103.616 99.4766 103.534 99.7422C103.456 100.008 103.376 100.25 103.294 100.469L102.398 102.813Z" stroke="#E68A8A" stroke-width="20" mask="url(#path-1-outside-1_2_3)"/>
<path d="M108.96 106C108.765 106 108.667 105.893 108.667 105.678V97.9199C108.667 97.7051 108.765 97.5977 108.96 97.5977H110.208C110.357 97.5977 110.468 97.7148 110.542 97.9492L112.218 103.205C112.39 103.744 112.491 104.07 112.523 104.184C112.554 104.293 112.599 104.496 112.657 104.793H112.693C112.751 104.496 112.796 104.293 112.827 104.184C112.859 104.07 112.96 103.744 113.132 103.205L114.808 97.9492C114.882 97.7148 114.993 97.5977 115.142 97.5977H116.39C116.585 97.5977 116.683 97.7051 116.683 97.9199V105.678C116.683 105.893 116.585 106 116.39 106H115.851C115.655 106 115.558 105.893 115.558 105.678V99.5313C115.558 99.375 115.562 99.2188 115.57 99.0625H115.546L113.384 105.643C113.306 105.881 113.177 106 112.997 106H112.353C112.173 106 112.044 105.881 111.966 105.643L109.804 99.0625H109.78C109.788 99.2188 109.792 99.375 109.792 99.5313V105.678C109.792 105.893 109.695 106 109.499 106H108.96Z" stroke="#E68A8A" stroke-width="20" mask="url(#path-1-outside-1_2_3)"/>
</svg>
