<svg width="1142" height="382" viewBox="0 0 1142 382" fill="none" xmlns="http://www.w3.org/2000/svg">
<path d="M36.0739 305H30.5341L46.5568 261.364H52.0114L68.0341 305H62.4943L49.4545 268.267H49.1136L36.0739 305ZM38.1193 287.955H60.4489V292.642H38.1193V287.955ZM81.9151 261.364V305H76.631V261.364H81.9151ZM112.985 305V261.364H127.729C131.152 261.364 133.951 261.982 136.124 263.217C138.312 264.439 139.931 266.094 140.982 268.182C142.033 270.27 142.559 272.599 142.559 275.17C142.559 277.741 142.033 280.078 140.982 282.18C139.945 284.283 138.34 285.959 136.167 287.209C133.993 288.445 131.209 289.062 127.814 289.062H117.246V284.375H127.644C129.988 284.375 131.87 283.97 133.29 283.161C134.711 282.351 135.741 281.257 136.38 279.879C137.033 278.487 137.36 276.918 137.36 275.17C137.36 273.423 137.033 271.861 136.38 270.483C135.741 269.105 134.704 268.026 133.269 267.244C131.834 266.449 129.931 266.051 127.559 266.051H118.269V305H112.985ZM152.871 305V261.364H179.206V266.051H158.155V280.795H177.842V285.483H158.155V300.312H179.547V305H152.871ZM225.132 261.364V305H220.019L196.24 270.739H195.814V305H190.53V261.364H195.644L219.507 295.71H219.934V261.364H225.132ZM250.972 305H237.506V261.364H251.568C255.801 261.364 259.424 262.237 262.435 263.984C265.446 265.717 267.755 268.21 269.36 271.463C270.965 274.702 271.767 278.58 271.767 283.097C271.767 287.642 270.958 291.555 269.338 294.837C267.719 298.104 265.361 300.618 262.264 302.379C259.168 304.126 255.404 305 250.972 305ZM242.79 300.312H250.631C254.239 300.312 257.229 299.616 259.601 298.224C261.973 296.832 263.742 294.851 264.907 292.28C266.071 289.709 266.654 286.648 266.654 283.097C266.654 279.574 266.078 276.541 264.928 273.999C263.777 271.442 262.059 269.482 259.772 268.118C257.485 266.74 254.637 266.051 251.228 266.051H242.79V300.312ZM287.715 261.364V305H282.431V261.364H287.715ZM313.576 305H300.11V261.364H314.172C318.405 261.364 322.027 262.237 325.039 263.984C328.05 265.717 330.358 268.21 331.964 271.463C333.569 274.702 334.371 278.58 334.371 283.097C334.371 287.642 333.562 291.555 331.942 294.837C330.323 298.104 327.965 300.618 324.868 302.379C321.772 304.126 318.008 305 313.576 305ZM305.394 300.312H313.235C316.843 300.312 319.833 299.616 322.205 298.224C324.577 296.832 326.346 294.851 327.51 292.28C328.675 289.709 329.258 286.648 329.258 283.097C329.258 279.574 328.682 276.541 327.532 273.999C326.381 271.442 324.662 269.482 322.375 268.118C320.089 266.74 317.241 266.051 313.831 266.051H305.394V300.312ZM350.319 261.364V305H345.035V261.364H350.319ZM362.714 305V261.364H367.998V283.011H368.509L388.112 261.364H395.015L376.691 281.051L395.015 305H388.623L373.452 284.716L367.998 290.852V305H362.714ZM405.444 305H399.904L415.927 261.364H421.382L437.404 305H431.865L418.825 268.267H418.484L405.444 305ZM407.49 287.955H429.819V292.642H407.49V287.955ZM480.604 261.364V305H475.49L451.712 270.739H451.285V305H446.001V261.364H451.115L474.979 295.71H475.405V261.364H480.604ZM511.652 305V261.364H526.908C529.948 261.364 532.455 261.889 534.429 262.94C536.403 263.977 537.874 265.376 538.84 267.138C539.805 268.885 540.288 270.824 540.288 272.955C540.288 274.83 539.955 276.378 539.287 277.599C538.634 278.821 537.767 279.787 536.688 280.497C535.622 281.207 534.465 281.733 533.215 282.074V282.5C534.55 282.585 535.892 283.054 537.242 283.906C538.591 284.759 539.72 285.98 540.629 287.571C541.538 289.162 541.993 291.108 541.993 293.409C541.993 295.597 541.496 297.564 540.502 299.311C539.507 301.058 537.938 302.443 535.793 303.466C533.648 304.489 530.857 305 527.419 305H511.652ZM516.936 300.312H527.419C530.871 300.312 533.321 299.645 534.77 298.31C536.233 296.96 536.965 295.327 536.965 293.409C536.965 291.932 536.588 290.568 535.835 289.318C535.082 288.054 534.01 287.045 532.618 286.293C531.226 285.526 529.578 285.142 527.675 285.142H516.936V300.312ZM516.936 280.54H526.737C528.328 280.54 529.763 280.227 531.041 279.602C532.334 278.977 533.357 278.097 534.109 276.96C534.877 275.824 535.26 274.489 535.26 272.955C535.26 271.037 534.592 269.411 533.257 268.075C531.922 266.726 529.805 266.051 526.908 266.051H516.936V280.54ZM554.265 305H548.725L564.748 261.364H570.203L586.225 305H580.686L567.646 268.267H567.305L554.265 305ZM556.311 287.955H578.64V292.642H556.311V287.955ZM594.822 305V261.364H600.106V280.795H623.373V261.364H628.658V305H623.373V285.483H600.106V305H594.822ZM642.826 305H637.286L653.309 261.364H658.764L674.786 305H669.247L656.207 268.267H655.866L642.826 305ZM644.872 287.955H667.201V292.642H644.872V287.955ZM707.247 272.273C706.991 270.114 705.954 268.438 704.136 267.244C702.318 266.051 700.088 265.455 697.446 265.455C695.514 265.455 693.824 265.767 692.375 266.392C690.94 267.017 689.818 267.876 689.008 268.97C688.213 270.064 687.815 271.307 687.815 272.699C687.815 273.864 688.092 274.865 688.646 275.703C689.214 276.527 689.939 277.216 690.819 277.77C691.7 278.31 692.623 278.757 693.589 279.112C694.555 279.453 695.443 279.73 696.253 279.943L700.684 281.136C701.821 281.435 703.085 281.847 704.477 282.372C705.883 282.898 707.226 283.615 708.504 284.524C709.797 285.419 710.862 286.57 711.7 287.976C712.538 289.382 712.957 291.108 712.957 293.153C712.957 295.511 712.339 297.642 711.104 299.545C709.882 301.449 708.092 302.962 705.734 304.084C703.39 305.206 700.542 305.767 697.19 305.767C694.065 305.767 691.359 305.263 689.072 304.254C686.8 303.246 685.01 301.839 683.703 300.036C682.41 298.232 681.679 296.136 681.508 293.75H686.963C687.105 295.398 687.659 296.761 688.625 297.841C689.605 298.906 690.841 299.702 692.332 300.227C693.838 300.739 695.457 300.994 697.19 300.994C699.207 300.994 701.018 300.668 702.623 300.014C704.229 299.347 705.5 298.423 706.437 297.244C707.375 296.051 707.844 294.659 707.844 293.068C707.844 291.619 707.439 290.44 706.629 289.531C705.819 288.622 704.754 287.884 703.433 287.315C702.112 286.747 700.684 286.25 699.15 285.824L693.781 284.29C690.372 283.31 687.673 281.911 685.684 280.092C683.696 278.274 682.702 275.895 682.702 272.955C682.702 270.511 683.362 268.381 684.683 266.562C686.018 264.73 687.808 263.31 690.052 262.301C692.311 261.278 694.832 260.767 697.616 260.767C700.429 260.767 702.929 261.271 705.116 262.28C707.304 263.274 709.037 264.638 710.315 266.371C711.608 268.104 712.29 270.071 712.361 272.273H707.247ZM725.235 305H719.695L735.718 261.364H741.172L757.195 305H751.655L738.615 268.267H738.275L725.235 305ZM727.28 287.955H749.61V292.642H727.28V287.955ZM785.628 305C784.652 305 784.163 304.463 784.163 303.389V264.6C784.163 263.525 784.652 262.988 785.628 262.988H788.323C789.3 262.988 789.788 263.525 789.788 264.6V303.389C789.788 304.463 789.3 305 788.323 305H785.628ZM803.014 305C802.037 305 801.549 304.463 801.549 303.389V264.6C801.549 263.525 802.037 262.988 803.014 262.988H806.764C808.131 262.988 809.108 263.477 809.694 264.453L828.034 295.186H828.151C828.112 294.404 828.092 293.623 828.092 292.842V264.6C828.092 263.525 828.58 262.988 829.557 262.988H832.252C833.229 262.988 833.717 263.525 833.717 264.6V303.389C833.717 304.463 833.229 305 832.252 305H829.674C828.307 305 827.33 304.512 826.745 303.535L807.233 270.928H807.116C807.155 271.709 807.174 272.49 807.174 273.271V303.389C807.174 304.463 806.686 305 805.709 305H803.014ZM846.943 305C845.966 305 845.478 304.463 845.478 303.389V264.6C845.478 263.525 845.966 262.988 846.943 262.988H857.754C866.035 262.988 871.787 264.824 875.009 268.496C878.252 272.148 879.873 277.295 879.873 283.936C879.873 290.576 878.252 295.752 875.009 299.463C871.787 303.154 866.035 305 857.754 305H846.943ZM851.103 300.195H857.49C863.935 300.195 868.271 298.828 870.498 296.094C872.744 293.359 873.867 289.307 873.867 283.936C873.867 278.564 872.744 274.521 870.498 271.807C868.271 269.092 863.935 267.734 857.49 267.734H851.103V300.195ZM887.063 283.994C887.063 277.158 888.743 271.807 892.102 267.939C895.481 264.053 900.345 262.109 906.692 262.109C913.04 262.109 917.893 264.053 921.253 267.939C924.632 271.807 926.321 277.158 926.321 283.994C926.321 290.83 924.632 296.191 921.253 300.078C917.893 303.945 913.04 305.879 906.692 305.879C900.345 305.879 895.481 303.945 892.102 300.078C888.743 296.191 887.063 290.83 887.063 283.994ZM893.069 283.994C893.069 289.463 894.192 293.721 896.438 296.768C898.684 299.795 902.102 301.309 906.692 301.309C911.282 301.309 914.7 299.795 916.946 296.768C919.192 293.721 920.315 289.463 920.315 283.994C920.315 278.525 919.192 274.277 916.946 271.25C914.7 268.203 911.282 266.68 906.692 266.68C902.102 266.68 898.684 268.203 896.438 271.25C894.192 274.277 893.069 278.525 893.069 283.994ZM937.262 305C936.285 305 935.797 304.463 935.797 303.389V264.6C935.797 263.525 936.285 262.988 937.262 262.988H941.012C942.379 262.988 943.355 263.477 943.941 264.453L962.281 295.186H962.398C962.359 294.404 962.34 293.623 962.34 292.842V264.6C962.34 263.525 962.828 262.988 963.805 262.988H966.5C967.477 262.988 967.965 263.525 967.965 264.6V303.389C967.965 304.463 967.477 305 966.5 305H963.922C962.555 305 961.578 304.512 960.992 303.535L941.48 270.928H941.363C941.402 271.709 941.422 272.49 941.422 273.271V303.389C941.422 304.463 940.934 305 939.957 305H937.262ZM981.191 305C980.214 305 979.726 304.463 979.726 303.389V264.6C979.726 263.525 980.214 262.988 981.191 262.988H1006.83C1007.9 262.988 1008.44 263.428 1008.44 264.307V266.475C1008.44 267.354 1007.9 267.793 1006.83 267.793H985.351V280.801H1005.07C1006.14 280.801 1006.68 281.24 1006.68 282.119V284.287C1006.68 285.166 1006.14 285.605 1005.07 285.605H985.351V300.195H1007.7C1008.78 300.195 1009.32 300.635 1009.32 301.514V303.682C1009.32 304.561 1008.78 305 1007.7 305H981.191ZM1018.62 301.836C1017.58 300.898 1017.31 300.078 1017.8 299.375L1019.32 297.178C1019.85 296.416 1020.7 296.475 1021.87 297.354C1023.41 298.506 1025.01 299.453 1026.67 300.195C1028.35 300.938 1030.38 301.309 1032.77 301.309C1034.52 301.309 1036.01 301.045 1037.22 300.518C1038.43 299.99 1039.4 299.238 1040.12 298.262C1040.86 297.266 1041.23 296.064 1041.23 294.658C1041.23 293.643 1041.08 292.705 1040.76 291.846C1040.47 290.967 1039.99 290.234 1039.33 289.648C1038.66 289.062 1037.97 288.604 1037.25 288.271C1036.06 287.725 1034.27 287.09 1031.89 286.367C1029.52 285.645 1027.45 284.863 1025.68 284.023C1023.92 283.184 1022.51 282.168 1021.46 280.977C1020.42 279.785 1019.73 278.564 1019.38 277.314C1019.05 276.045 1018.88 274.6 1018.88 272.979C1018.88 270.498 1019.6 268.359 1021.05 266.562C1022.49 264.766 1024.26 263.574 1026.35 262.988C1028.46 262.402 1030.6 262.109 1032.77 262.109C1035.25 262.109 1037.4 262.432 1039.24 263.076C1041.08 263.721 1042.72 264.561 1044.16 265.596C1045.18 266.318 1045.41 267.08 1044.87 267.881L1043.37 270.02C1042.92 270.664 1042.04 270.527 1040.73 269.609C1039.74 268.906 1038.52 268.252 1037.07 267.646C1035.65 267.021 1034.23 266.709 1032.82 266.709C1031.03 266.709 1029.53 266.924 1028.34 267.354C1027.15 267.764 1026.21 268.467 1025.53 269.463C1024.85 270.459 1024.5 271.611 1024.5 272.92C1024.5 273.74 1024.58 274.502 1024.74 275.205C1024.89 275.889 1025.3 276.592 1025.94 277.314C1026.58 278.037 1027.37 278.594 1028.28 278.984C1029.51 279.512 1031.42 280.137 1034 280.859C1036.59 281.562 1038.86 282.432 1040.79 283.467C1042.59 284.424 1043.88 285.43 1044.66 286.484C1045.46 287.52 1046.08 288.652 1046.51 289.883C1046.96 291.094 1047.18 292.461 1047.18 293.984C1047.18 296.758 1046.47 299.072 1045.04 300.928C1043.62 302.783 1041.93 304.072 1039.97 304.795C1038.02 305.518 1035.57 305.879 1032.62 305.879C1029.08 305.879 1026.15 305.469 1023.83 304.648C1021.51 303.828 1019.77 302.891 1018.62 301.836ZM1057.86 305C1056.88 305 1056.39 304.463 1056.39 303.389V264.6C1056.39 263.525 1056.88 262.988 1057.86 262.988H1060.55C1061.53 262.988 1062.02 263.525 1062.02 264.6V303.389C1062.02 304.463 1061.53 305 1060.55 305H1057.86ZM1071.67 305C1070.65 305 1070.39 304.355 1070.88 303.066L1085.47 264.775C1085.92 263.584 1086.56 262.988 1087.4 262.988H1091.5C1092.34 262.988 1092.99 263.584 1093.44 264.775L1108.03 303.066C1108.51 304.355 1108.25 305 1107.24 305H1104.25C1103.21 305 1102.51 304.521 1102.14 303.564L1098.48 293.867H1080.43L1076.77 303.564C1076.4 304.521 1075.69 305 1074.66 305H1071.67ZM1082.27 289.062H1096.63L1092.15 277.344C1091.74 276.25 1091.33 275.039 1090.92 273.711C1090.53 272.383 1090.06 270.498 1089.51 268.057H1089.39C1088.85 270.498 1088.37 272.383 1087.96 273.711C1087.57 275.039 1087.17 276.25 1086.76 277.344L1082.27 289.062Z" fill="#5C5656"/>
<mask id="path-2-outside-1_1_2" maskUnits="userSpaceOnUse" x="126.5" y="42" width="902" height="182" fill="black">
<rect fill="white" x="126.5" y="42" width="902" height="182"/>
<path d="M138 90C135.167 90 133.167 86.1667 132 78.5C131.5 75.3333 131.25 71.8333 131.25 68C131.25 64.1667 131.667 60.1667 132.5 56C134 48.3333 136.5 44.5 140 44.5H232.5C242.667 44.5 249.25 53.75 252.25 72.25C252.917 76.25 253.25 79.1667 253.25 81L194.75 169.75H240.5C240.667 169.75 240.833 169.75 241 169.75C244.667 169.75 247.25 173.75 248.75 181.75C249.417 185.583 249.75 189.583 249.75 193.75C249.75 197.917 249.25 202.333 248.25 207C246.417 215.333 243.583 219.5 239.75 219.5H142.5C141 219.5 138.25 214.5 134.25 204.5C130.417 194.333 128.5 188 128.5 185.5C128.5 183 128.75 181.417 129.25 180.75L187.75 90H138Z"/>
<path d="M365.619 212.75C355.119 218.917 341.619 222 325.119 222C308.619 222 294.702 216.417 283.369 205.25C272.036 193.917 266.369 178.333 266.369 158.5C266.369 138.5 271.786 122.417 282.619 110.25C293.619 98.0833 307.452 92 324.119 92C340.786 92 353.619 96.25 362.619 104.75C371.786 113.25 376.369 123.583 376.369 135.75C376.369 162.75 360.869 176.25 329.869 176.25H312.619C312.619 181.25 313.952 184.75 316.619 186.75C319.452 188.583 323.536 189.5 328.869 189.5C340.536 189.5 351.619 186.833 362.119 181.5C362.286 181.333 363.036 182.5 364.369 185C368.369 192.167 370.369 198.25 370.369 203.25C370.369 208.083 368.786 211.25 365.619 212.75ZM334.369 140.5C334.369 133.5 330.952 130 324.119 130C320.952 130 318.202 131 315.869 133C313.702 134.833 312.619 137.583 312.619 141.25V149H326.119C331.619 149 334.369 146.167 334.369 140.5Z"/>
<path d="M447.451 219.25C447.451 220.417 439.868 221 424.701 221C409.535 220.667 401.951 220 401.951 219V136H395.201C392.535 136 390.368 134.417 388.701 131.25C387.201 127.917 386.451 123.833 386.451 119C386.451 101 391.785 92 402.451 92C409.951 92 416.201 94.3333 421.201 99C426.201 103.5 428.701 108.667 428.701 114.5C432.201 107.667 436.868 102.25 442.701 98.25C448.701 94.0833 454.785 92 460.951 92C470.618 92 476.451 94.5 478.451 99.5C478.951 100.833 479.201 102.833 479.201 105.5C479.201 108 478.368 112.583 476.701 119.25C475.201 125.917 473.618 130.75 471.951 133.75C470.285 136.75 469.285 138.25 468.951 138.25C468.618 138.25 467.035 137.667 464.201 136.5C461.535 135.167 459.118 134.5 456.951 134.5C450.618 134.5 447.451 139.5 447.451 149.5V219.25Z"/>
<path d="M771.43 214C771.43 217.5 763.596 219.25 747.93 219.25C732.263 219.25 723.763 218 722.43 215.5L680.68 137.5V215.25C680.68 218.25 672.93 219.75 657.43 219.75C642.096 219.75 634.43 218.25 634.43 215.25V48C634.43 45.5 641.013 44.25 654.18 44.25C659.346 44.25 665.346 44.75 672.18 45.75C679.18 46.5833 683.43 48.25 684.93 50.75L724.93 127.75V49.25C724.93 46.0833 732.68 44.5 748.18 44.5C763.68 44.5 771.43 46.0833 771.43 49.25V214Z"/>
<path d="M794.039 204.75V49.25C794.039 45.75 802.456 44 819.289 44C836.289 44 844.789 45.75 844.789 49.25V171.75H883.289C886.289 171.75 888.372 175.667 889.539 183.5C890.039 187.333 890.289 191.25 890.289 195.25C890.289 199.25 890.039 203.333 889.539 207.5C888.206 215.5 886.039 219.5 883.039 219.5H806.039C802.372 219.5 799.456 218 797.289 215C795.122 212 794.039 208.583 794.039 204.75Z"/>
<path d="M926.932 220C911.765 220 904.182 218.333 904.182 215V53C904.182 47.3333 906.765 44.5 911.932 44.5H955.932C980.598 44.5 998.348 49.5833 1009.18 59.75C1020.18 69.9167 1025.68 84.6667 1025.68 104C1025.68 120 1020.51 134.667 1010.18 148C1005.01 154.667 997.432 160 987.432 164C977.432 168 965.765 170 952.432 170V214.75C952.432 216.75 949.265 218.167 942.932 219C936.765 219.667 931.432 220 926.932 220ZM952.432 88V127.5H955.682C961.515 127.5 966.432 125.667 970.432 122C974.432 118.333 976.432 113.167 976.432 106.5C976.432 99.8333 975.015 95.0833 972.182 92.25C969.515 89.4167 964.682 88 957.682 88H952.432Z"/>
<path d="M520 215.75C507.833 215.75 498.083 212.667 490.75 206.5C482.75 200.333 478.75 191.667 478.75 180.5C478.75 176.667 479.25 172.75 480.25 168.75C485.917 145.583 504.083 127.833 534.75 115.5C549.417 109.5 562.083 106.5 572.75 106.5C578.083 106.5 580.75 107.167 580.75 108.5C580.75 109.667 579.75 110.333 577.75 110.5C566.25 111.5 554.917 114 543.75 118C531.25 122.5 521.25 128.083 513.75 134.75C506.25 141.25 500.083 148.833 495.25 157.5C489.917 167.167 487.25 176.333 487.25 185C487.25 202.167 497.583 210.75 518.25 210.75C539.583 210.75 561.417 200.667 583.75 180.5C589.417 175.5 594.5 169.333 599 162C603.833 153.667 606.25 146.167 606.25 139.5C606.25 126.167 596.833 120.25 578 121.75C559.667 123.583 543 130.833 528 143.5C527.667 144 527.167 144.25 526.5 144.25C524.833 144.25 524 143.667 524 142.5C524 139.5 529.25 135.083 539.75 129.25C553.583 121.417 566.667 117.417 579 117.25C602.833 116.25 614.75 124.583 614.75 142.25C614.75 154.083 609.5 165.833 599 177.5C588.5 189.333 574.5 199.083 557 206.75C543.833 212.75 531.5 215.75 520 215.75Z"/>
</mask>
<path d="M138 90C135.167 90 133.167 86.1667 132 78.5C131.5 75.3333 131.25 71.8333 131.25 68C131.25 64.1667 131.667 60.1667 132.5 56C134 48.3333 136.5 44.5 140 44.5H232.5C242.667 44.5 249.25 53.75 252.25 72.25C252.917 76.25 253.25 79.1667 253.25 81L194.75 169.75H240.5C240.667 169.75 240.833 169.75 241 169.75C244.667 169.75 247.25 173.75 248.75 181.75C249.417 185.583 249.75 189.583 249.75 193.75C249.75 197.917 249.25 202.333 248.25 207C246.417 215.333 243.583 219.5 239.75 219.5H142.5C141 219.5 138.25 214.5 134.25 204.5C130.417 194.333 128.5 188 128.5 185.5C128.5 183 128.75 181.417 129.25 180.75L187.75 90H138Z" fill="#4CAF50"/>
<path d="M365.619 212.75C355.119 218.917 341.619 222 325.119 222C308.619 222 294.702 216.417 283.369 205.25C272.036 193.917 266.369 178.333 266.369 158.5C266.369 138.5 271.786 122.417 282.619 110.25C293.619 98.0833 307.452 92 324.119 92C340.786 92 353.619 96.25 362.619 104.75C371.786 113.25 376.369 123.583 376.369 135.75C376.369 162.75 360.869 176.25 329.869 176.25H312.619C312.619 181.25 313.952 184.75 316.619 186.75C319.452 188.583 323.536 189.5 328.869 189.5C340.536 189.5 351.619 186.833 362.119 181.5C362.286 181.333 363.036 182.5 364.369 185C368.369 192.167 370.369 198.25 370.369 203.25C370.369 208.083 368.786 211.25 365.619 212.75ZM334.369 140.5C334.369 133.5 330.952 130 324.119 130C320.952 130 318.202 131 315.869 133C313.702 134.833 312.619 137.583 312.619 141.25V149H326.119C331.619 149 334.369 146.167 334.369 140.5Z" fill="#4CAF50"/>
<path d="M447.451 219.25C447.451 220.417 439.868 221 424.701 221C409.535 220.667 401.951 220 401.951 219V136H395.201C392.535 136 390.368 134.417 388.701 131.25C387.201 127.917 386.451 123.833 386.451 119C386.451 101 391.785 92 402.451 92C409.951 92 416.201 94.3333 421.201 99C426.201 103.5 428.701 108.667 428.701 114.5C432.201 107.667 436.868 102.25 442.701 98.25C448.701 94.0833 454.785 92 460.951 92C470.618 92 476.451 94.5 478.451 99.5C478.951 100.833 479.201 102.833 479.201 105.5C479.201 108 478.368 112.583 476.701 119.25C475.201 125.917 473.618 130.75 471.951 133.75C470.285 136.75 469.285 138.25 468.951 138.25C468.618 138.25 467.035 137.667 464.201 136.5C461.535 135.167 459.118 134.5 456.951 134.5C450.618 134.5 447.451 139.5 447.451 149.5V219.25Z" fill="#4CAF50"/>
<path d="M771.43 214C771.43 217.5 763.596 219.25 747.93 219.25C732.263 219.25 723.763 218 722.43 215.5L680.68 137.5V215.25C680.68 218.25 672.93 219.75 657.43 219.75C642.096 219.75 634.43 218.25 634.43 215.25V48C634.43 45.5 641.013 44.25 654.18 44.25C659.346 44.25 665.346 44.75 672.18 45.75C679.18 46.5833 683.43 48.25 684.93 50.75L724.93 127.75V49.25C724.93 46.0833 732.68 44.5 748.18 44.5C763.68 44.5 771.43 46.0833 771.43 49.25V214Z" fill="#4CAF50"/>
<path d="M794.039 204.75V49.25C794.039 45.75 802.456 44 819.289 44C836.289 44 844.789 45.75 844.789 49.25V171.75H883.289C886.289 171.75 888.372 175.667 889.539 183.5C890.039 187.333 890.289 191.25 890.289 195.25C890.289 199.25 890.039 203.333 889.539 207.5C888.206 215.5 886.039 219.5 883.039 219.5H806.039C802.372 219.5 799.456 218 797.289 215C795.122 212 794.039 208.583 794.039 204.75Z" fill="#4CAF50"/>
<path d="M926.932 220C911.765 220 904.182 218.333 904.182 215V53C904.182 47.3333 906.765 44.5 911.932 44.5H955.932C980.598 44.5 998.348 49.5833 1009.18 59.75C1020.18 69.9167 1025.68 84.6667 1025.68 104C1025.68 120 1020.51 134.667 1010.18 148C1005.01 154.667 997.432 160 987.432 164C977.432 168 965.765 170 952.432 170V214.75C952.432 216.75 949.265 218.167 942.932 219C936.765 219.667 931.432 220 926.932 220ZM952.432 88V127.5H955.682C961.515 127.5 966.432 125.667 970.432 122C974.432 118.333 976.432 113.167 976.432 106.5C976.432 99.8333 975.015 95.0833 972.182 92.25C969.515 89.4167 964.682 88 957.682 88H952.432Z" fill="#4CAF50"/>
<path d="M520 215.75C507.833 215.75 498.083 212.667 490.75 206.5C482.75 200.333 478.75 191.667 478.75 180.5C478.75 176.667 479.25 172.75 480.25 168.75C485.917 145.583 504.083 127.833 534.75 115.5C549.417 109.5 562.083 106.5 572.75 106.5C578.083 106.5 580.75 107.167 580.75 108.5C580.75 109.667 579.75 110.333 577.75 110.5C566.25 111.5 554.917 114 543.75 118C531.25 122.5 521.25 128.083 513.75 134.75C506.25 141.25 500.083 148.833 495.25 157.5C489.917 167.167 487.25 176.333 487.25 185C487.25 202.167 497.583 210.75 518.25 210.75C539.583 210.75 561.417 200.667 583.75 180.5C589.417 175.5 594.5 169.333 599 162C603.833 153.667 606.25 146.167 606.25 139.5C606.25 126.167 596.833 120.25 578 121.75C559.667 123.583 543 130.833 528 143.5C527.667 144 527.167 144.25 526.5 144.25C524.833 144.25 524 143.667 524 142.5C524 139.5 529.25 135.083 539.75 129.25C553.583 121.417 566.667 117.417 579 117.25C602.833 116.25 614.75 124.583 614.75 142.25C614.75 154.083 609.5 165.833 599 177.5C588.5 189.333 574.5 199.083 557 206.75C543.833 212.75 531.5 215.75 520 215.75Z" fill="#4CAF50"/>
<path d="M138 90C135.167 90 133.167 86.1667 132 78.5C131.5 75.3333 131.25 71.8333 131.25 68C131.25 64.1667 131.667 60.1667 132.5 56C134 48.3333 136.5 44.5 140 44.5H232.5C242.667 44.5 249.25 53.75 252.25 72.25C252.917 76.25 253.25 79.1667 253.25 81L194.75 169.75H240.5C240.667 169.75 240.833 169.75 241 169.75C244.667 169.75 247.25 173.75 248.75 181.75C249.417 185.583 249.75 189.583 249.75 193.75C249.75 197.917 249.25 202.333 248.25 207C246.417 215.333 243.583 219.5 239.75 219.5H142.5C141 219.5 138.25 214.5 134.25 204.5C130.417 194.333 128.5 188 128.5 185.5C128.5 183 128.75 181.417 129.25 180.75L187.75 90H138Z" stroke="url(#paint0_linear_1_2)" stroke-width="4" mask="url(#path-2-outside-1_1_2)"/>
<path d="M365.619 212.75C355.119 218.917 341.619 222 325.119 222C308.619 222 294.702 216.417 283.369 205.25C272.036 193.917 266.369 178.333 266.369 158.5C266.369 138.5 271.786 122.417 282.619 110.25C293.619 98.0833 307.452 92 324.119 92C340.786 92 353.619 96.25 362.619 104.75C371.786 113.25 376.369 123.583 376.369 135.75C376.369 162.75 360.869 176.25 329.869 176.25H312.619C312.619 181.25 313.952 184.75 316.619 186.75C319.452 188.583 323.536 189.5 328.869 189.5C340.536 189.5 351.619 186.833 362.119 181.5C362.286 181.333 363.036 182.5 364.369 185C368.369 192.167 370.369 198.25 370.369 203.25C370.369 208.083 368.786 211.25 365.619 212.75ZM334.369 140.5C334.369 133.5 330.952 130 324.119 130C320.952 130 318.202 131 315.869 133C313.702 134.833 312.619 137.583 312.619 141.25V149H326.119C331.619 149 334.369 146.167 334.369 140.5Z" stroke="url(#paint1_linear_1_2)" stroke-width="4" mask="url(#path-2-outside-1_1_2)"/>
<path d="M447.451 219.25C447.451 220.417 439.868 221 424.701 221C409.535 220.667 401.951 220 401.951 219V136H395.201C392.535 136 390.368 134.417 388.701 131.25C387.201 127.917 386.451 123.833 386.451 119C386.451 101 391.785 92 402.451 92C409.951 92 416.201 94.3333 421.201 99C426.201 103.5 428.701 108.667 428.701 114.5C432.201 107.667 436.868 102.25 442.701 98.25C448.701 94.0833 454.785 92 460.951 92C470.618 92 476.451 94.5 478.451 99.5C478.951 100.833 479.201 102.833 479.201 105.5C479.201 108 478.368 112.583 476.701 119.25C475.201 125.917 473.618 130.75 471.951 133.75C470.285 136.75 469.285 138.25 468.951 138.25C468.618 138.25 467.035 137.667 464.201 136.5C461.535 135.167 459.118 134.5 456.951 134.5C450.618 134.5 447.451 139.5 447.451 149.5V219.25Z" stroke="url(#paint2_linear_1_2)" stroke-width="4" mask="url(#path-2-outside-1_1_2)"/>
<path d="M771.43 214C771.43 217.5 763.596 219.25 747.93 219.25C732.263 219.25 723.763 218 722.43 215.5L680.68 137.5V215.25C680.68 218.25 672.93 219.75 657.43 219.75C642.096 219.75 634.43 218.25 634.43 215.25V48C634.43 45.5 641.013 44.25 654.18 44.25C659.346 44.25 665.346 44.75 672.18 45.75C679.18 46.5833 683.43 48.25 684.93 50.75L724.93 127.75V49.25C724.93 46.0833 732.68 44.5 748.18 44.5C763.68 44.5 771.43 46.0833 771.43 49.25V214Z" stroke="url(#paint3_linear_1_2)" stroke-width="4" mask="url(#path-2-outside-1_1_2)"/>
<path d="M794.039 204.75V49.25C794.039 45.75 802.456 44 819.289 44C836.289 44 844.789 45.75 844.789 49.25V171.75H883.289C886.289 171.75 888.372 175.667 889.539 183.5C890.039 187.333 890.289 191.25 890.289 195.25C890.289 199.25 890.039 203.333 889.539 207.5C888.206 215.5 886.039 219.5 883.039 219.5H806.039C802.372 219.5 799.456 218 797.289 215C795.122 212 794.039 208.583 794.039 204.75Z" stroke="url(#paint4_linear_1_2)" stroke-width="4" mask="url(#path-2-outside-1_1_2)"/>
<path d="M926.932 220C911.765 220 904.182 218.333 904.182 215V53C904.182 47.3333 906.765 44.5 911.932 44.5H955.932C980.598 44.5 998.348 49.5833 1009.18 59.75C1020.18 69.9167 1025.68 84.6667 1025.68 104C1025.68 120 1020.51 134.667 1010.18 148C1005.01 154.667 997.432 160 987.432 164C977.432 168 965.765 170 952.432 170V214.75C952.432 216.75 949.265 218.167 942.932 219C936.765 219.667 931.432 220 926.932 220ZM952.432 88V127.5H955.682C961.515 127.5 966.432 125.667 970.432 122C974.432 118.333 976.432 113.167 976.432 106.5C976.432 99.8333 975.015 95.0833 972.182 92.25C969.515 89.4167 964.682 88 957.682 88H952.432Z" stroke="url(#paint5_linear_1_2)" stroke-width="4" mask="url(#path-2-outside-1_1_2)"/>
<path d="M520 215.75C507.833 215.75 498.083 212.667 490.75 206.5C482.75 200.333 478.75 191.667 478.75 180.5C478.75 176.667 479.25 172.75 480.25 168.75C485.917 145.583 504.083 127.833 534.75 115.5C549.417 109.5 562.083 106.5 572.75 106.5C578.083 106.5 580.75 107.167 580.75 108.5C580.75 109.667 579.75 110.333 577.75 110.5C566.25 111.5 554.917 114 543.75 118C531.25 122.5 521.25 128.083 513.75 134.75C506.25 141.25 500.083 148.833 495.25 157.5C489.917 167.167 487.25 176.333 487.25 185C487.25 202.167 497.583 210.75 518.25 210.75C539.583 210.75 561.417 200.667 583.75 180.5C589.417 175.5 594.5 169.333 599 162C603.833 153.667 606.25 146.167 606.25 139.5C606.25 126.167 596.833 120.25 578 121.75C559.667 123.583 543 130.833 528 143.5C527.667 144 527.167 144.25 526.5 144.25C524.833 144.25 524 143.667 524 142.5C524 139.5 529.25 135.083 539.75 129.25C553.583 121.417 566.667 117.417 579 117.25C602.833 116.25 614.75 124.583 614.75 142.25C614.75 154.083 609.5 165.833 599 177.5C588.5 189.333 574.5 199.083 557 206.75C543.833 212.75 531.5 215.75 520 215.75Z" stroke="url(#paint6_linear_1_2)" stroke-width="4" mask="url(#path-2-outside-1_1_2)"/>
<defs>
<linearGradient id="paint0_linear_1_2" x1="577.091" y1="44" x2="577.091" y2="222" gradientUnits="userSpaceOnUse">
<stop stop-color="#63E068"/>
<stop offset="1" stop-color="#4A844C" stop-opacity="0.74"/>
</linearGradient>
<linearGradient id="paint1_linear_1_2" x1="577.091" y1="44" x2="577.091" y2="222" gradientUnits="userSpaceOnUse">
<stop stop-color="#63E068"/>
<stop offset="1" stop-color="#4A844C" stop-opacity="0.74"/>
</linearGradient>
<linearGradient id="paint2_linear_1_2" x1="577.091" y1="44" x2="577.091" y2="222" gradientUnits="userSpaceOnUse">
<stop stop-color="#63E068"/>
<stop offset="1" stop-color="#4A844C" stop-opacity="0.74"/>
</linearGradient>
<linearGradient id="paint3_linear_1_2" x1="577.091" y1="44" x2="577.091" y2="222" gradientUnits="userSpaceOnUse">
<stop stop-color="#63E068"/>
<stop offset="1" stop-color="#4A844C" stop-opacity="0.74"/>
</linearGradient>
<linearGradient id="paint4_linear_1_2" x1="577.091" y1="44" x2="577.091" y2="222" gradientUnits="userSpaceOnUse">
<stop stop-color="#63E068"/>
<stop offset="1" stop-color="#4A844C" stop-opacity="0.74"/>
</linearGradient>
<linearGradient id="paint5_linear_1_2" x1="577.091" y1="44" x2="577.091" y2="222" gradientUnits="userSpaceOnUse">
<stop stop-color="#63E068"/>
<stop offset="1" stop-color="#4A844C" stop-opacity="0.74"/>
</linearGradient>
<linearGradient id="paint6_linear_1_2" x1="577.091" y1="44" x2="577.091" y2="222" gradientUnits="userSpaceOnUse">
<stop stop-color="#63E068"/>
<stop offset="1" stop-color="#4A844C" stop-opacity="0.74"/>
</linearGradient>
</defs>
</svg>
